<mxfile host="app.diagrams.net" agent="Mozilla/5.0 (Windows NT 10.0; Win64; x64) AppleWebKit/537.36 (KHTML, like Gecko) Chrome/134.0.0.0 Safari/537.36 Edg/134.0.0.0" version="26.0.11">
  <diagram name="Página-1" id="O_o1B6R7X4B5vlNxxR9w">
    <mxGraphModel dx="5375" dy="719" grid="1" gridSize="10" guides="1" tooltips="1" connect="1" arrows="1" fold="1" page="1" pageScale="1" pageWidth="827" pageHeight="1169" math="0" shadow="0">
      <root>
        <mxCell id="0" />
        <mxCell id="1" parent="0" />
        <mxCell id="yprg2_4qLAlfsFqhbdQK-1" value="&lt;font style=&quot;&quot;&gt;&lt;font style=&quot;font-size: 10px;&quot;&gt;Lucas Martin de Macedo Gagliano&lt;br&gt;&lt;/font&gt;&lt;span style=&quot;font-size: 8px;&quot;&gt;(12/11/2001 - )&lt;/span&gt;&lt;br&gt;&lt;font style=&quot;font-size: 6px;&quot;&gt;&lt;i&gt;São Paulo, Brasil&lt;/i&gt;&lt;/font&gt;&lt;/font&gt;" style="rounded=0;whiteSpace=wrap;html=1;" parent="1" vertex="1">
          <mxGeometry x="360" y="620" width="160" height="60" as="geometry" />
        </mxCell>
        <mxCell id="yprg2_4qLAlfsFqhbdQK-2" value="&lt;font style=&quot;font-size: 10px;&quot;&gt;Leonor Maria Martin de Macedo&lt;/font&gt;&lt;div&gt;&lt;font style=&quot;&quot;&gt;&lt;span style=&quot;font-size: 8px;&quot;&gt;(08/10/1982 - )&lt;/span&gt;&lt;br&gt;&lt;font style=&quot;font-size: 6px;&quot;&gt;&lt;i&gt;São Paulo, Brasil&lt;/i&gt;&lt;/font&gt;&lt;/font&gt;&lt;/div&gt;" style="rounded=0;whiteSpace=wrap;html=1;" parent="1" vertex="1">
          <mxGeometry x="20" y="530" width="160" height="60" as="geometry" />
        </mxCell>
        <mxCell id="yprg2_4qLAlfsFqhbdQK-3" value="&lt;font style=&quot;&quot;&gt;&lt;font style=&quot;font-size: 10px;&quot;&gt;Ricardo Horesh Gagliano&lt;br&gt;&lt;/font&gt;&lt;span style=&quot;font-size: 8px;&quot;&gt;(08/03/1983 - )&lt;/span&gt;&lt;br&gt;&lt;font style=&quot;font-size: 6px;&quot;&gt;&lt;i&gt;São Paulo, Brasil&lt;/i&gt;&lt;/font&gt;&lt;/font&gt;" style="rounded=0;whiteSpace=wrap;html=1;" parent="1" vertex="1">
          <mxGeometry x="750" y="530" width="120" height="60" as="geometry" />
        </mxCell>
        <mxCell id="yprg2_4qLAlfsFqhbdQK-4" value="&lt;font style=&quot;&quot;&gt;&lt;font style=&quot;font-size: 10px;&quot;&gt;Gisele Horesh Gagliano&lt;br&gt;&lt;/font&gt;&lt;span style=&quot;font-size: 8px;&quot;&gt;(16/09/1987 - )&lt;/span&gt;&lt;br&gt;&lt;i style=&quot;font-size: 12px;&quot;&gt;&lt;font style=&quot;font-size: 6px;&quot;&gt;São Paulo, Brasil&lt;/font&gt;&lt;/i&gt;&lt;/font&gt;" style="rounded=0;whiteSpace=wrap;html=1;" parent="1" vertex="1">
          <mxGeometry x="1300" y="530" width="120" height="60" as="geometry" />
        </mxCell>
        <mxCell id="yprg2_4qLAlfsFqhbdQK-5" value="&lt;font style=&quot;&quot;&gt;&lt;font style=&quot;font-size: 10px;&quot;&gt;Cynthia Horesh Gagliano&lt;br&gt;&lt;/font&gt;&lt;span style=&quot;font-size: 8px;&quot;&gt;(05/07/1981 - )&lt;/span&gt;&lt;br&gt;&lt;i style=&quot;font-size: 12px;&quot;&gt;&lt;font style=&quot;font-size: 6px;&quot;&gt;São Paulo, Brasil&lt;/font&gt;&lt;/i&gt;&lt;/font&gt;" style="rounded=0;whiteSpace=wrap;html=1;" parent="1" vertex="1">
          <mxGeometry x="1460" y="530" width="120" height="60" as="geometry" />
        </mxCell>
        <mxCell id="yprg2_4qLAlfsFqhbdQK-6" value="&lt;font style=&quot;&quot;&gt;&lt;font style=&quot;font-size: 10px;&quot;&gt;Rodrigo Martin de Macedo&lt;br&gt;&lt;/font&gt;&lt;span style=&quot;font-size: 8px;&quot;&gt;(14/11/1980 - )&lt;/span&gt;&lt;br&gt;&lt;i style=&quot;&quot;&gt;&lt;font style=&quot;font-size: 6px;&quot;&gt;São Paulo, Brasil&lt;/font&gt;&lt;/i&gt;&lt;/font&gt;" style="rounded=0;whiteSpace=wrap;html=1;" parent="1" vertex="1">
          <mxGeometry x="-160" y="530" width="140" height="60" as="geometry" />
        </mxCell>
        <mxCell id="yprg2_4qLAlfsFqhbdQK-10" value="&lt;font style=&quot;&quot;&gt;&lt;font style=&quot;font-size: 10px;&quot;&gt;Rosemari Martin Pereira&lt;br&gt;&lt;/font&gt;&lt;span style=&quot;font-size: 8px;&quot;&gt;(12/02/1953 - )&lt;/span&gt;&lt;br&gt;&lt;i style=&quot;&quot;&gt;&lt;font style=&quot;font-size: 6px;&quot;&gt;Olímpia, Brasil&lt;/font&gt;&lt;/i&gt;&lt;/font&gt;" style="rounded=0;whiteSpace=wrap;html=1;" parent="1" vertex="1">
          <mxGeometry x="-385" y="360" width="120" height="60" as="geometry" />
        </mxCell>
        <mxCell id="yprg2_4qLAlfsFqhbdQK-11" value="&lt;font style=&quot;font-size: 10px;&quot;&gt;Fausto José de Macedo&lt;/font&gt;&lt;div&gt;&lt;font style=&quot;&quot;&gt;&lt;span style=&quot;font-size: 8px;&quot;&gt;(05/01/1951 - )&lt;/span&gt;&lt;br&gt;&lt;i style=&quot;&quot;&gt;&lt;font style=&quot;font-size: 6px;&quot;&gt;São Paulo, Brasil&lt;/font&gt;&lt;/i&gt;&lt;/font&gt;&lt;/div&gt;" style="rounded=0;whiteSpace=wrap;html=1;" parent="1" vertex="1">
          <mxGeometry x="20" y="360" width="120" height="60" as="geometry" />
        </mxCell>
        <mxCell id="yprg2_4qLAlfsFqhbdQK-23" value="&lt;font style=&quot;&quot;&gt;&lt;font style=&quot;font-size: 10px;&quot;&gt;Thaís Ferreira Furtado&lt;br&gt;&lt;/font&gt;&lt;span style=&quot;font-size: 8px;&quot;&gt;(09/11/1984 - )&lt;/span&gt;&lt;br&gt;&lt;i style=&quot;&quot;&gt;&lt;font style=&quot;font-size: 6px;&quot;&gt;São Paulo, Brasil&lt;/font&gt;&lt;/i&gt;&lt;/font&gt;" style="rounded=0;whiteSpace=wrap;html=1;" parent="1" vertex="1">
          <mxGeometry x="970" y="530" width="120" height="60" as="geometry" />
        </mxCell>
        <mxCell id="yprg2_4qLAlfsFqhbdQK-25" value="&lt;font style=&quot;font-size: 10px;&quot;&gt;Davi Ferreira Horesh Gagliano&lt;/font&gt;&lt;div&gt;&lt;font style=&quot;font-size: 8px;&quot;&gt;(03/12/2013 - )&lt;br&gt;&lt;i style=&quot;font-size: 12px;&quot;&gt;&lt;font style=&quot;font-size: 6px;&quot;&gt;São Paulo, Brasil&lt;/font&gt;&lt;/i&gt;&lt;/font&gt;&lt;/div&gt;" style="rounded=0;whiteSpace=wrap;html=1;" parent="1" vertex="1">
          <mxGeometry x="730" y="620" width="160" height="60" as="geometry" />
        </mxCell>
        <mxCell id="yprg2_4qLAlfsFqhbdQK-26" value="&lt;font style=&quot;&quot;&gt;&lt;font style=&quot;font-size: 10px;&quot;&gt;Ayla Ferreira Horesh Gagliano&lt;br&gt;&lt;/font&gt;&lt;span style=&quot;font-size: 8px;&quot;&gt;(11/01/2022 - )&lt;br&gt;&lt;/span&gt;&lt;i&gt;&lt;font style=&quot;font-size: 6px;&quot;&gt;São Paulo, Brasil&lt;/font&gt;&lt;/i&gt;&lt;span style=&quot;font-size: 8px;&quot;&gt;&lt;/span&gt;&lt;/font&gt;" style="rounded=0;whiteSpace=wrap;html=1;" parent="1" vertex="1">
          <mxGeometry x="950" y="620" width="160" height="60" as="geometry" />
        </mxCell>
        <mxCell id="yprg2_4qLAlfsFqhbdQK-52" value="" style="endArrow=none;html=1;rounded=0;" parent="1" edge="1">
          <mxGeometry width="50" height="50" relative="1" as="geometry">
            <mxPoint y="390" as="sourcePoint" />
            <mxPoint y="510" as="targetPoint" />
          </mxGeometry>
        </mxCell>
        <mxCell id="yprg2_4qLAlfsFqhbdQK-54" value="" style="endArrow=none;html=1;rounded=0;entryX=0;entryY=0.5;entryDx=0;entryDy=0;exitX=1;exitY=0.5;exitDx=0;exitDy=0;" parent="1" source="yprg2_4qLAlfsFqhbdQK-3" target="yprg2_4qLAlfsFqhbdQK-23" edge="1">
          <mxGeometry width="50" height="50" relative="1" as="geometry">
            <mxPoint x="770" y="560" as="sourcePoint" />
            <mxPoint x="820" y="510" as="targetPoint" />
          </mxGeometry>
        </mxCell>
        <mxCell id="yprg2_4qLAlfsFqhbdQK-56" value="" style="endArrow=none;html=1;rounded=0;" parent="1" edge="1">
          <mxGeometry width="50" height="50" relative="1" as="geometry">
            <mxPoint x="920" y="610" as="sourcePoint" />
            <mxPoint x="920" y="560" as="targetPoint" />
          </mxGeometry>
        </mxCell>
        <mxCell id="yprg2_4qLAlfsFqhbdQK-57" value="" style="endArrow=none;html=1;rounded=0;exitX=1;exitY=0.5;exitDx=0;exitDy=0;entryX=0;entryY=0.5;entryDx=0;entryDy=0;" parent="1" source="yprg2_4qLAlfsFqhbdQK-2" target="yprg2_4qLAlfsFqhbdQK-3" edge="1">
          <mxGeometry width="50" height="50" relative="1" as="geometry">
            <mxPoint x="470" y="660" as="sourcePoint" />
            <mxPoint x="520" y="610" as="targetPoint" />
          </mxGeometry>
        </mxCell>
        <mxCell id="yprg2_4qLAlfsFqhbdQK-58" value="" style="endArrow=none;html=1;rounded=0;exitX=0.5;exitY=0;exitDx=0;exitDy=0;" parent="1" source="yprg2_4qLAlfsFqhbdQK-1" edge="1">
          <mxGeometry width="50" height="50" relative="1" as="geometry">
            <mxPoint x="400" y="610" as="sourcePoint" />
            <mxPoint x="440" y="560" as="targetPoint" />
          </mxGeometry>
        </mxCell>
        <mxCell id="yprg2_4qLAlfsFqhbdQK-65" value="" style="endArrow=none;html=1;rounded=0;" parent="1" edge="1">
          <mxGeometry width="50" height="50" relative="1" as="geometry">
            <mxPoint x="-90" y="510" as="sourcePoint" />
            <mxPoint y="510" as="targetPoint" />
          </mxGeometry>
        </mxCell>
        <mxCell id="yprg2_4qLAlfsFqhbdQK-66" value="" style="endArrow=none;html=1;rounded=0;" parent="1" edge="1">
          <mxGeometry width="50" height="50" relative="1" as="geometry">
            <mxPoint x="-40" y="510" as="sourcePoint" />
            <mxPoint x="100" y="510" as="targetPoint" />
          </mxGeometry>
        </mxCell>
        <mxCell id="yprg2_4qLAlfsFqhbdQK-67" value="" style="endArrow=none;html=1;rounded=0;entryX=0.5;entryY=0;entryDx=0;entryDy=0;" parent="1" target="yprg2_4qLAlfsFqhbdQK-6" edge="1">
          <mxGeometry width="50" height="50" relative="1" as="geometry">
            <mxPoint x="-90" y="510" as="sourcePoint" />
            <mxPoint x="110" y="510" as="targetPoint" />
          </mxGeometry>
        </mxCell>
        <mxCell id="yprg2_4qLAlfsFqhbdQK-68" value="" style="endArrow=none;html=1;rounded=0;exitX=0.5;exitY=0;exitDx=0;exitDy=0;" parent="1" source="yprg2_4qLAlfsFqhbdQK-2" edge="1">
          <mxGeometry width="50" height="50" relative="1" as="geometry">
            <mxPoint x="-10" y="560" as="sourcePoint" />
            <mxPoint x="100" y="510" as="targetPoint" />
          </mxGeometry>
        </mxCell>
        <mxCell id="eL84m_089L8rZWCyLEAg-1" value="" style="endArrow=none;html=1;rounded=0;exitX=0.5;exitY=0;exitDx=0;exitDy=0;" parent="1" source="yprg2_4qLAlfsFqhbdQK-25" edge="1">
          <mxGeometry width="50" height="50" relative="1" as="geometry">
            <mxPoint x="830" y="670.56" as="sourcePoint" />
            <mxPoint x="810" y="610" as="targetPoint" />
          </mxGeometry>
        </mxCell>
        <mxCell id="eL84m_089L8rZWCyLEAg-2" value="" style="endArrow=none;html=1;rounded=0;" parent="1" edge="1">
          <mxGeometry width="50" height="50" relative="1" as="geometry">
            <mxPoint x="920" y="610" as="sourcePoint" />
            <mxPoint x="1030" y="610" as="targetPoint" />
          </mxGeometry>
        </mxCell>
        <mxCell id="eL84m_089L8rZWCyLEAg-3" value="" style="endArrow=none;html=1;rounded=0;exitX=0.5;exitY=0;exitDx=0;exitDy=0;" parent="1" source="yprg2_4qLAlfsFqhbdQK-26" edge="1">
          <mxGeometry width="50" height="50" relative="1" as="geometry">
            <mxPoint x="850" y="680.56" as="sourcePoint" />
            <mxPoint x="1030" y="610" as="targetPoint" />
          </mxGeometry>
        </mxCell>
        <mxCell id="eL84m_089L8rZWCyLEAg-4" value="" style="endArrow=none;html=1;rounded=0;exitX=0.5;exitY=0;exitDx=0;exitDy=0;" parent="1" source="yprg2_4qLAlfsFqhbdQK-3" edge="1">
          <mxGeometry width="50" height="50" relative="1" as="geometry">
            <mxPoint x="1060" y="640" as="sourcePoint" />
            <mxPoint x="810" y="510" as="targetPoint" />
          </mxGeometry>
        </mxCell>
        <mxCell id="eL84m_089L8rZWCyLEAg-6" value="" style="endArrow=none;html=1;rounded=0;exitX=0.5;exitY=0;exitDx=0;exitDy=0;" parent="1" source="yprg2_4qLAlfsFqhbdQK-4" edge="1">
          <mxGeometry width="50" height="50" relative="1" as="geometry">
            <mxPoint x="1260" y="640" as="sourcePoint" />
            <mxPoint x="1360" y="510" as="targetPoint" />
          </mxGeometry>
        </mxCell>
        <mxCell id="eL84m_089L8rZWCyLEAg-8" value="" style="endArrow=none;html=1;rounded=0;exitX=0.5;exitY=0;exitDx=0;exitDy=0;" parent="1" source="yprg2_4qLAlfsFqhbdQK-5" edge="1">
          <mxGeometry width="50" height="50" relative="1" as="geometry">
            <mxPoint x="1260" y="640" as="sourcePoint" />
            <mxPoint x="1520" y="510" as="targetPoint" />
          </mxGeometry>
        </mxCell>
        <mxCell id="eL84m_089L8rZWCyLEAg-9" value="&lt;font style=&quot;&quot;&gt;&lt;font style=&quot;font-size: 10px;&quot;&gt;Nazima Gabbay&lt;br&gt;&lt;/font&gt;&lt;span style=&quot;font-size: 8px;&quot;&gt;(11/11/1923 - 07/11/2011)&lt;br&gt;&lt;/span&gt;&lt;i style=&quot;font-size: 6px;&quot;&gt;Baçorá, Iraque&lt;/i&gt;&lt;/font&gt;" style="rounded=0;whiteSpace=wrap;html=1;" parent="1" vertex="1">
          <mxGeometry x="1320" y="210" width="120" height="60" as="geometry" />
        </mxCell>
        <mxCell id="eL84m_089L8rZWCyLEAg-20" value="&lt;font style=&quot;&quot;&gt;&lt;font style=&quot;font-size: 10px;&quot;&gt;Shaoul Horesh&lt;br&gt;&lt;/font&gt;&lt;span style=&quot;font-size: 8px;&quot;&gt;(1876 - 1928)&lt;/span&gt;&lt;br&gt;&lt;font style=&quot;font-size: 6px;&quot;&gt;&lt;i&gt;Baçorá, Iraque&lt;/i&gt;&lt;/font&gt;&lt;/font&gt;" style="rounded=0;whiteSpace=wrap;html=1;" parent="1" vertex="1">
          <mxGeometry x="3950" y="90" width="120" height="60" as="geometry" />
        </mxCell>
        <mxCell id="eL84m_089L8rZWCyLEAg-21" value="&lt;font style=&quot;&quot;&gt;&lt;font style=&quot;font-size: 10px;&quot;&gt;Kehela Khatoun&lt;br&gt;&lt;/font&gt;&lt;span style=&quot;font-size: 8px;&quot;&gt;(1886 - )&lt;br&gt;Iraque&lt;/span&gt;&lt;/font&gt;" style="rounded=0;whiteSpace=wrap;html=1;" parent="1" vertex="1">
          <mxGeometry x="5280" y="90" width="120" height="60" as="geometry" />
        </mxCell>
        <mxCell id="eL84m_089L8rZWCyLEAg-22" value="&lt;span style=&quot;font-size: 8px;&quot;&gt;Rahmin Gabbay&lt;/span&gt;&lt;div&gt;&lt;span style=&quot;font-size: 8px;&quot;&gt;(- 1968)&lt;/span&gt;&lt;/div&gt;" style="rounded=0;whiteSpace=wrap;html=1;" parent="1" vertex="1">
          <mxGeometry x="1170" y="90" width="120" height="40" as="geometry" />
        </mxCell>
        <mxCell id="eL84m_089L8rZWCyLEAg-23" value="&lt;span style=&quot;font-size: 8px;&quot;&gt;Dina Cohen&lt;/span&gt;&lt;div&gt;&lt;span style=&quot;font-size: 8px;&quot;&gt;()&lt;/span&gt;&lt;/div&gt;" style="rounded=0;whiteSpace=wrap;html=1;" parent="1" vertex="1">
          <mxGeometry x="1330" y="90" width="120" height="40" as="geometry" />
        </mxCell>
        <mxCell id="eL84m_089L8rZWCyLEAg-24" value="" style="endArrow=none;html=1;rounded=0;exitX=1;exitY=0.5;exitDx=0;exitDy=0;entryX=0;entryY=0.5;entryDx=0;entryDy=0;" parent="1" source="eL84m_089L8rZWCyLEAg-20" target="eL84m_089L8rZWCyLEAg-21" edge="1">
          <mxGeometry width="50" height="50" relative="1" as="geometry">
            <mxPoint x="6330" y="120" as="sourcePoint" />
            <mxPoint x="6490" y="320" as="targetPoint" />
          </mxGeometry>
        </mxCell>
        <mxCell id="eL84m_089L8rZWCyLEAg-26" value="" style="endArrow=none;html=1;rounded=0;entryX=0.5;entryY=0;entryDx=0;entryDy=0;" parent="1" target="eL84m_089L8rZWCyLEAg-9" edge="1">
          <mxGeometry width="50" height="50" relative="1" as="geometry">
            <mxPoint x="1380" y="150" as="sourcePoint" />
            <mxPoint x="900" y="310" as="targetPoint" />
          </mxGeometry>
        </mxCell>
        <mxCell id="eL84m_089L8rZWCyLEAg-27" value="" style="endArrow=none;html=1;rounded=0;exitX=1;exitY=0.5;exitDx=0;exitDy=0;entryX=0;entryY=0.5;entryDx=0;entryDy=0;" parent="1" source="eL84m_089L8rZWCyLEAg-22" target="eL84m_089L8rZWCyLEAg-23" edge="1">
          <mxGeometry width="50" height="50" relative="1" as="geometry">
            <mxPoint x="810" y="360" as="sourcePoint" />
            <mxPoint x="860" y="310" as="targetPoint" />
          </mxGeometry>
        </mxCell>
        <mxCell id="eL84m_089L8rZWCyLEAg-28" value="&lt;font style=&quot;font-size: 10px;&quot;&gt;Nissim Horesh&lt;/font&gt;&lt;div&gt;&lt;span style=&quot;font-size: 8px;&quot;&gt;(1835 - 1903)&lt;/span&gt;&lt;br&gt;&lt;font style=&quot;font-size: 6px;&quot;&gt;&lt;i&gt;Bagdá, Iraque&lt;/i&gt;&lt;/font&gt;&lt;/div&gt;" style="rounded=0;whiteSpace=wrap;html=1;" parent="1" vertex="1">
          <mxGeometry x="3870" y="10" width="120" height="60" as="geometry" />
        </mxCell>
        <mxCell id="eL84m_089L8rZWCyLEAg-29" value="&lt;font style=&quot;font-size: 10px;&quot;&gt;Aziza Setty&lt;br&gt;&lt;/font&gt;&lt;font style=&quot;font-size: 8px;&quot;&gt;(1845 - 1935)&lt;/font&gt;&lt;div&gt;&lt;i style=&quot;font-size: 6px;&quot;&gt;Bagdá, Iraque&lt;/i&gt;&lt;/div&gt;" style="rounded=0;whiteSpace=wrap;html=1;" parent="1" vertex="1">
          <mxGeometry x="4030" y="10" width="120" height="60" as="geometry" />
        </mxCell>
        <mxCell id="eL84m_089L8rZWCyLEAg-30" value="" style="endArrow=none;html=1;rounded=0;exitX=1;exitY=0.5;exitDx=0;exitDy=0;entryX=0;entryY=0.5;entryDx=0;entryDy=0;" parent="1" source="eL84m_089L8rZWCyLEAg-28" target="eL84m_089L8rZWCyLEAg-29" edge="1">
          <mxGeometry width="50" height="50" relative="1" as="geometry">
            <mxPoint x="4210" y="270" as="sourcePoint" />
            <mxPoint x="4260" y="220" as="targetPoint" />
          </mxGeometry>
        </mxCell>
        <mxCell id="eL84m_089L8rZWCyLEAg-31" value="" style="endArrow=none;html=1;rounded=0;entryX=0.5;entryY=0;entryDx=0;entryDy=0;" parent="1" target="eL84m_089L8rZWCyLEAg-20" edge="1">
          <mxGeometry width="50" height="50" relative="1" as="geometry">
            <mxPoint x="4010" y="40" as="sourcePoint" />
            <mxPoint x="4190" y="160" as="targetPoint" />
          </mxGeometry>
        </mxCell>
        <mxCell id="D5vzUN_o91gO2FAWrli7-1" value="&lt;font style=&quot;&quot;&gt;&lt;span style=&quot;font-size: 8px;&quot;&gt;Gilberta Martin Pereira&lt;/span&gt;&lt;br&gt;&lt;span style=&quot;font-size: 8px;&quot;&gt;(21/12/1942 - )&lt;/span&gt;&lt;br&gt;&lt;font style=&quot;font-size: 6px;&quot;&gt;&lt;i&gt;Olímpia, Brasil&lt;/i&gt;&lt;/font&gt;&lt;/font&gt;" style="rounded=0;whiteSpace=wrap;html=1;" parent="1" vertex="1">
          <mxGeometry x="-1505" y="360" width="120" height="60" as="geometry" />
        </mxCell>
        <mxCell id="D5vzUN_o91gO2FAWrli7-2" value="&lt;font style=&quot;&quot;&gt;&lt;span style=&quot;font-size: 8px;&quot;&gt;Roberto Octaviano Nascimento&lt;/span&gt;&lt;br&gt;&lt;span style=&quot;font-size: 8px;&quot;&gt;()&lt;/span&gt;&lt;br&gt;&lt;font style=&quot;font-size: 6px;&quot;&gt;&lt;i&gt;São Paulo, Brasil&lt;/i&gt;&lt;/font&gt;&lt;/font&gt;" style="rounded=0;whiteSpace=wrap;html=1;" parent="1" vertex="1">
          <mxGeometry x="-930" y="360" width="120" height="60" as="geometry" />
        </mxCell>
        <mxCell id="D5vzUN_o91gO2FAWrli7-4" value="&lt;font style=&quot;&quot;&gt;&lt;font style=&quot;font-size: 10px;&quot;&gt;Abdón Martin Porras&lt;br&gt;&lt;/font&gt;&lt;span style=&quot;font-size: 8px;&quot;&gt;(30/07/1903 - )&lt;/span&gt;&lt;br&gt;&lt;font style=&quot;font-size: 6px;&quot;&gt;&lt;i&gt;Fresnedoso de Ibor, Espanha&lt;/i&gt;&lt;/font&gt;&lt;/font&gt;" style="rounded=0;whiteSpace=wrap;html=1;" parent="1" vertex="1">
          <mxGeometry x="-1640" y="240" width="110" height="60" as="geometry" />
        </mxCell>
        <mxCell id="D5vzUN_o91gO2FAWrli7-5" value="&lt;font style=&quot;font-size: 8px;&quot;&gt;Paulo Martin Pereira&lt;br&gt;()&lt;/font&gt;" style="rounded=0;whiteSpace=wrap;html=1;" parent="1" vertex="1">
          <mxGeometry x="-1990" y="360" width="120" height="60" as="geometry" />
        </mxCell>
        <mxCell id="D5vzUN_o91gO2FAWrli7-6" value="&lt;font style=&quot;font-size: 8px;&quot;&gt;Vilma Malufi&lt;br&gt;()&lt;/font&gt;" style="rounded=0;whiteSpace=wrap;html=1;" parent="1" vertex="1">
          <mxGeometry x="-1830" y="360" width="120" height="60" as="geometry" />
        </mxCell>
        <mxCell id="D5vzUN_o91gO2FAWrli7-8" value="" style="endArrow=none;html=1;rounded=0;" parent="1" edge="1">
          <mxGeometry width="50" height="50" relative="1" as="geometry">
            <mxPoint x="810" y="610" as="sourcePoint" />
            <mxPoint x="920" y="610" as="targetPoint" />
          </mxGeometry>
        </mxCell>
        <mxCell id="D5vzUN_o91gO2FAWrli7-9" value="&lt;font style=&quot;&quot;&gt;&lt;span style=&quot;font-size: 10px;&quot;&gt;Leonor da Silva Sabino Pereira&lt;/span&gt;&lt;br&gt;&lt;font style=&quot;&quot;&gt;&lt;font style=&quot;&quot;&gt;&lt;span style=&quot;font-size: 8px;&quot;&gt;(26/02/1916 - ?)&lt;/span&gt;&lt;br&gt;&lt;font style=&quot;font-style: italic; font-size: 6px;&quot;&gt;Cajuru, Brasil&lt;/font&gt;&lt;/font&gt;&lt;/font&gt;&lt;/font&gt;" style="rounded=0;whiteSpace=wrap;html=1;" parent="1" vertex="1">
          <mxGeometry x="-1190" y="240" width="160" height="60" as="geometry" />
        </mxCell>
        <mxCell id="D5vzUN_o91gO2FAWrli7-10" value="" style="endArrow=none;html=1;rounded=0;exitX=1;exitY=0.5;exitDx=0;exitDy=0;entryX=0;entryY=0.5;entryDx=0;entryDy=0;" parent="1" source="D5vzUN_o91gO2FAWrli7-4" target="D5vzUN_o91gO2FAWrli7-9" edge="1">
          <mxGeometry width="50" height="50" relative="1" as="geometry">
            <mxPoint x="-865" y="460" as="sourcePoint" />
            <mxPoint x="-815" y="410" as="targetPoint" />
          </mxGeometry>
        </mxCell>
        <mxCell id="D5vzUN_o91gO2FAWrli7-11" value="" style="endArrow=none;html=1;rounded=0;" parent="1" edge="1">
          <mxGeometry width="50" height="50" relative="1" as="geometry">
            <mxPoint x="-1445" y="360" as="sourcePoint" />
            <mxPoint x="-1445" y="270" as="targetPoint" />
          </mxGeometry>
        </mxCell>
        <mxCell id="D5vzUN_o91gO2FAWrli7-12" value="" style="endArrow=none;html=1;rounded=0;" parent="1" edge="1">
          <mxGeometry width="50" height="50" relative="1" as="geometry">
            <mxPoint x="-1930" y="320" as="sourcePoint" />
            <mxPoint x="-1445" y="320" as="targetPoint" />
          </mxGeometry>
        </mxCell>
        <mxCell id="D5vzUN_o91gO2FAWrli7-13" value="" style="endArrow=none;html=1;rounded=0;" parent="1" edge="1">
          <mxGeometry width="50" height="50" relative="1" as="geometry">
            <mxPoint x="-325" y="320" as="sourcePoint" />
            <mxPoint x="-1450" y="320" as="targetPoint" />
          </mxGeometry>
        </mxCell>
        <mxCell id="D5vzUN_o91gO2FAWrli7-14" value="" style="endArrow=none;html=1;rounded=0;exitX=0.5;exitY=0;exitDx=0;exitDy=0;" parent="1" source="yprg2_4qLAlfsFqhbdQK-10" edge="1">
          <mxGeometry width="50" height="50" relative="1" as="geometry">
            <mxPoint x="-685" y="470" as="sourcePoint" />
            <mxPoint x="-325" y="320" as="targetPoint" />
          </mxGeometry>
        </mxCell>
        <mxCell id="D5vzUN_o91gO2FAWrli7-15" value="" style="endArrow=none;html=1;rounded=0;exitX=0.5;exitY=0;exitDx=0;exitDy=0;" parent="1" source="D5vzUN_o91gO2FAWrli7-5" edge="1">
          <mxGeometry width="50" height="50" relative="1" as="geometry">
            <mxPoint x="-1820" y="510" as="sourcePoint" />
            <mxPoint x="-1930" y="320" as="targetPoint" />
          </mxGeometry>
        </mxCell>
        <mxCell id="D5vzUN_o91gO2FAWrli7-16" value="" style="endArrow=none;html=1;rounded=0;exitX=1;exitY=0.5;exitDx=0;exitDy=0;entryX=0;entryY=0.5;entryDx=0;entryDy=0;" parent="1" source="D5vzUN_o91gO2FAWrli7-1" target="D5vzUN_o91gO2FAWrli7-2" edge="1">
          <mxGeometry width="50" height="50" relative="1" as="geometry">
            <mxPoint x="-845" y="480" as="sourcePoint" />
            <mxPoint x="-795" y="430" as="targetPoint" />
          </mxGeometry>
        </mxCell>
        <mxCell id="D5vzUN_o91gO2FAWrli7-17" value="&lt;font style=&quot;&quot;&gt;&lt;span style=&quot;font-size: 10px;&quot;&gt;Flávia Martin Nascimento&lt;br&gt;&lt;/span&gt;&lt;span style=&quot;font-size: 8px;&quot;&gt;(10/09/19xx - )&lt;/span&gt;&lt;br&gt;&lt;i style=&quot;&quot;&gt;&lt;font style=&quot;font-size: 6px;&quot;&gt;São Paulo, Brasil&lt;/font&gt;&lt;/i&gt;&lt;/font&gt;" style="rounded=0;whiteSpace=wrap;html=1;" parent="1" vertex="1">
          <mxGeometry x="-1620" y="530" width="140" height="60" as="geometry" />
        </mxCell>
        <mxCell id="D5vzUN_o91gO2FAWrli7-18" value="&lt;font style=&quot;&quot;&gt;&lt;span style=&quot;font-size: 10px;&quot;&gt;Cláudia Martin Nascimento&lt;br&gt;&lt;/span&gt;&lt;span style=&quot;font-size: 8px;&quot;&gt;(17/12/1973 - )&lt;/span&gt;&lt;br&gt;&lt;i style=&quot;&quot;&gt;&lt;font style=&quot;font-size: 6px;&quot;&gt;São Paulo, Brasil&lt;/font&gt;&lt;/i&gt;&lt;/font&gt;" style="rounded=0;whiteSpace=wrap;html=1;" parent="1" vertex="1">
          <mxGeometry x="-1020" y="530" width="140" height="60" as="geometry" />
        </mxCell>
        <mxCell id="D5vzUN_o91gO2FAWrli7-19" value="&lt;font style=&quot;&quot;&gt;&lt;span style=&quot;font-size: 10px;&quot;&gt;Fernando Martin Nascimento&lt;br&gt;&lt;/span&gt;&lt;span style=&quot;font-size: 8px;&quot;&gt;(22/06/1977 - )&lt;/span&gt;&lt;br&gt;&lt;i style=&quot;&quot;&gt;&lt;font style=&quot;font-size: 6px;&quot;&gt;São Paulo, Brasil&lt;/font&gt;&lt;/i&gt;&lt;/font&gt;" style="rounded=0;whiteSpace=wrap;html=1;" parent="1" vertex="1">
          <mxGeometry x="-840" y="530" width="140" height="60" as="geometry" />
        </mxCell>
        <mxCell id="D5vzUN_o91gO2FAWrli7-23" value="" style="endArrow=none;html=1;rounded=0;exitX=0.5;exitY=0;exitDx=0;exitDy=0;" parent="1" source="D5vzUN_o91gO2FAWrli7-18" edge="1">
          <mxGeometry width="50" height="50" relative="1" as="geometry">
            <mxPoint x="-950" y="510" as="sourcePoint" />
            <mxPoint x="-950" y="390" as="targetPoint" />
          </mxGeometry>
        </mxCell>
        <mxCell id="D5vzUN_o91gO2FAWrli7-24" value="" style="endArrow=none;html=1;rounded=0;" parent="1" edge="1">
          <mxGeometry width="50" height="50" relative="1" as="geometry">
            <mxPoint x="-770" y="510" as="sourcePoint" />
            <mxPoint x="-950" y="510" as="targetPoint" />
          </mxGeometry>
        </mxCell>
        <mxCell id="D5vzUN_o91gO2FAWrli7-25" value="" style="endArrow=none;html=1;rounded=0;" parent="1" edge="1">
          <mxGeometry width="50" height="50" relative="1" as="geometry">
            <mxPoint x="-1550" y="510" as="sourcePoint" />
            <mxPoint x="-950" y="510" as="targetPoint" />
          </mxGeometry>
        </mxCell>
        <mxCell id="D5vzUN_o91gO2FAWrli7-26" value="" style="endArrow=none;html=1;rounded=0;exitX=0.5;exitY=0;exitDx=0;exitDy=0;" parent="1" source="D5vzUN_o91gO2FAWrli7-17" edge="1">
          <mxGeometry width="50" height="50" relative="1" as="geometry">
            <mxPoint x="-1330" y="500" as="sourcePoint" />
            <mxPoint x="-1550" y="510" as="targetPoint" />
          </mxGeometry>
        </mxCell>
        <mxCell id="D5vzUN_o91gO2FAWrli7-28" value="" style="endArrow=none;html=1;rounded=0;entryX=0.5;entryY=0;entryDx=0;entryDy=0;" parent="1" target="D5vzUN_o91gO2FAWrli7-19" edge="1">
          <mxGeometry width="50" height="50" relative="1" as="geometry">
            <mxPoint x="-770" y="510" as="sourcePoint" />
            <mxPoint x="-860" y="450" as="targetPoint" />
          </mxGeometry>
        </mxCell>
        <mxCell id="D5vzUN_o91gO2FAWrli7-29" value="&lt;font style=&quot;&quot;&gt;&lt;span style=&quot;font-size: 10px;&quot;&gt;John Campbell&lt;br&gt;&lt;/span&gt;&lt;span style=&quot;font-size: 8px;&quot;&gt;(11/01/1967 - )&lt;/span&gt;&lt;br&gt;&lt;i style=&quot;&quot;&gt;&lt;font style=&quot;font-size: 6px;&quot;&gt;Cupertino, Estados Unidos da América&lt;/font&gt;&lt;/i&gt;&lt;/font&gt;" style="rounded=0;whiteSpace=wrap;html=1;" parent="1" vertex="1">
          <mxGeometry x="-1780" y="530" width="116.5" height="60" as="geometry" />
        </mxCell>
        <mxCell id="D5vzUN_o91gO2FAWrli7-30" value="" style="endArrow=none;html=1;rounded=0;entryX=0;entryY=0.5;entryDx=0;entryDy=0;exitX=1;exitY=0.5;exitDx=0;exitDy=0;" parent="1" source="D5vzUN_o91gO2FAWrli7-29" target="D5vzUN_o91gO2FAWrli7-17" edge="1">
          <mxGeometry width="50" height="50" relative="1" as="geometry">
            <mxPoint x="-1650" y="530" as="sourcePoint" />
            <mxPoint x="-1600" y="480" as="targetPoint" />
          </mxGeometry>
        </mxCell>
        <mxCell id="D5vzUN_o91gO2FAWrli7-32" value="&lt;font style=&quot;&quot;&gt;&lt;span style=&quot;font-size: 10px;&quot;&gt;Gabriella Campbell&lt;br&gt;&lt;/span&gt;&lt;span style=&quot;font-size: 8px;&quot;&gt;()&lt;/span&gt;&lt;br&gt;&lt;i&gt;&lt;font style=&quot;font-size: 6px;&quot;&gt;San José, Estados Unidos da América&lt;/font&gt;&lt;/i&gt;&lt;/font&gt;" style="rounded=0;whiteSpace=wrap;html=1;" parent="1" vertex="1">
          <mxGeometry x="-1770" y="620" width="120" height="60" as="geometry" />
        </mxCell>
        <mxCell id="D5vzUN_o91gO2FAWrli7-33" value="&lt;font style=&quot;&quot;&gt;&lt;span style=&quot;font-size: 10px;&quot;&gt;David Campbell&lt;br&gt;&lt;/span&gt;&lt;span style=&quot;font-size: 8px;&quot;&gt;()&lt;/span&gt;&lt;br&gt;&lt;i&gt;&lt;font style=&quot;font-size: 6px;&quot;&gt;San José, Estados Unidos da América&lt;/font&gt;&lt;/i&gt;&lt;/font&gt;" style="rounded=0;whiteSpace=wrap;html=1;" parent="1" vertex="1">
          <mxGeometry x="-1610" y="620" width="120" height="60" as="geometry" />
        </mxCell>
        <mxCell id="D5vzUN_o91gO2FAWrli7-34" value="" style="endArrow=none;html=1;rounded=0;" parent="1" edge="1">
          <mxGeometry width="50" height="50" relative="1" as="geometry">
            <mxPoint x="-1640" y="600" as="sourcePoint" />
            <mxPoint x="-1640" y="560" as="targetPoint" />
          </mxGeometry>
        </mxCell>
        <mxCell id="D5vzUN_o91gO2FAWrli7-35" value="" style="endArrow=none;html=1;rounded=0;" parent="1" edge="1">
          <mxGeometry width="50" height="50" relative="1" as="geometry">
            <mxPoint x="-1710" y="600" as="sourcePoint" />
            <mxPoint x="-1640" y="600" as="targetPoint" />
          </mxGeometry>
        </mxCell>
        <mxCell id="D5vzUN_o91gO2FAWrli7-36" value="" style="endArrow=none;html=1;rounded=0;entryX=0.5;entryY=0;entryDx=0;entryDy=0;" parent="1" target="D5vzUN_o91gO2FAWrli7-32" edge="1">
          <mxGeometry width="50" height="50" relative="1" as="geometry">
            <mxPoint x="-1710" y="600" as="sourcePoint" />
            <mxPoint x="-1560" y="470" as="targetPoint" />
          </mxGeometry>
        </mxCell>
        <mxCell id="D5vzUN_o91gO2FAWrli7-37" value="" style="endArrow=none;html=1;rounded=0;" parent="1" edge="1">
          <mxGeometry width="50" height="50" relative="1" as="geometry">
            <mxPoint x="-1640" y="600" as="sourcePoint" />
            <mxPoint x="-1550" y="600" as="targetPoint" />
          </mxGeometry>
        </mxCell>
        <mxCell id="D5vzUN_o91gO2FAWrli7-38" value="" style="endArrow=none;html=1;rounded=0;exitX=0.5;exitY=0;exitDx=0;exitDy=0;" parent="1" source="D5vzUN_o91gO2FAWrli7-33" edge="1">
          <mxGeometry width="50" height="50" relative="1" as="geometry">
            <mxPoint x="-1610" y="520" as="sourcePoint" />
            <mxPoint x="-1550" y="600" as="targetPoint" />
          </mxGeometry>
        </mxCell>
        <mxCell id="aGWTZ41KhDJ6ELR5V0SO-1" value="" style="endArrow=none;html=1;rounded=0;entryX=0;entryY=0.5;entryDx=0;entryDy=0;exitX=1;exitY=0.5;exitDx=0;exitDy=0;" parent="1" source="yprg2_4qLAlfsFqhbdQK-10" target="yprg2_4qLAlfsFqhbdQK-11" edge="1">
          <mxGeometry width="50" height="50" relative="1" as="geometry">
            <mxPoint x="30" y="350" as="sourcePoint" />
            <mxPoint x="80" y="300" as="targetPoint" />
          </mxGeometry>
        </mxCell>
        <mxCell id="aGWTZ41KhDJ6ELR5V0SO-4" value="&lt;font style=&quot;&quot;&gt;&lt;span style=&quot;font-size: 10px;&quot;&gt;Fausto Ribeiro de Macedo&lt;/span&gt;&lt;/font&gt;&lt;div&gt;&lt;font style=&quot;&quot;&gt;&lt;span style=&quot;font-size: 8px;&quot;&gt;(16/07/1917 - 17/02/1999)&lt;/span&gt;&lt;br&gt;&lt;font style=&quot;font-size: 6px;&quot;&gt;&lt;i&gt;Franca, Brasil&lt;/i&gt;&lt;/font&gt;&lt;/font&gt;&lt;/div&gt;" style="rounded=0;whiteSpace=wrap;html=1;" parent="1" vertex="1">
          <mxGeometry x="-210" y="130" width="140" height="60" as="geometry" />
        </mxCell>
        <mxCell id="aGWTZ41KhDJ6ELR5V0SO-5" value="&lt;font style=&quot;&quot;&gt;&lt;font style=&quot;&quot;&gt;&lt;span style=&quot;font-size: 10px;&quot;&gt;Maria Stella Romeu&lt;/span&gt;&lt;br&gt;&lt;font style=&quot;&quot;&gt;&lt;i style=&quot;&quot;&gt;&lt;span style=&quot;font-size: 8px;&quot;&gt;(- 28/08/1979)&lt;/span&gt;&lt;br&gt;&lt;font style=&quot;font-size: 6px;&quot;&gt;São Paulo, Brasil&lt;/font&gt;&lt;/i&gt;&lt;/font&gt;&lt;/font&gt;&lt;/font&gt;" style="rounded=0;whiteSpace=wrap;html=1;" parent="1" vertex="1">
          <mxGeometry x="150" y="130" width="140" height="60" as="geometry" />
        </mxCell>
        <mxCell id="aGWTZ41KhDJ6ELR5V0SO-6" value="" style="endArrow=none;html=1;rounded=0;exitX=1;exitY=0.5;exitDx=0;exitDy=0;entryX=0;entryY=0.5;entryDx=0;entryDy=0;" parent="1" source="aGWTZ41KhDJ6ELR5V0SO-4" target="aGWTZ41KhDJ6ELR5V0SO-5" edge="1">
          <mxGeometry width="50" height="50" relative="1" as="geometry">
            <mxPoint x="40" y="250" as="sourcePoint" />
            <mxPoint x="90" y="200" as="targetPoint" />
          </mxGeometry>
        </mxCell>
        <mxCell id="aGWTZ41KhDJ6ELR5V0SO-7" value="" style="endArrow=none;html=1;rounded=0;exitX=0.5;exitY=0;exitDx=0;exitDy=0;" parent="1" source="yprg2_4qLAlfsFqhbdQK-11" edge="1">
          <mxGeometry width="50" height="50" relative="1" as="geometry">
            <mxPoint x="40" y="360" as="sourcePoint" />
            <mxPoint x="80" y="160" as="targetPoint" />
          </mxGeometry>
        </mxCell>
        <mxCell id="aGWTZ41KhDJ6ELR5V0SO-8" value="&lt;div&gt;&lt;font style=&quot;&quot;&gt;&lt;span style=&quot;font-size: 10px;&quot;&gt;Antonieta ?&lt;/span&gt;&lt;/font&gt;&lt;/div&gt;&lt;div&gt;&lt;font style=&quot;&quot;&gt;&lt;span style=&quot;font-size: 8px;&quot;&gt;(- 1944)&lt;/span&gt;&lt;br&gt;&lt;/font&gt;&lt;/div&gt;&lt;div&gt;&lt;font style=&quot;&quot;&gt;&lt;span style=&quot;font-size: 8px;&quot;&gt;&lt;br&gt;&lt;/span&gt;&lt;/font&gt;&lt;/div&gt;" style="rounded=0;whiteSpace=wrap;html=1;" parent="1" vertex="1">
          <mxGeometry x="-290" y="30" width="130" height="60" as="geometry" />
        </mxCell>
        <mxCell id="aGWTZ41KhDJ6ELR5V0SO-9" value="&lt;font style=&quot;&quot;&gt;&lt;span style=&quot;font-size: 10px;&quot;&gt;Dimas de Macedo&lt;br&gt;&lt;/span&gt;&lt;span style=&quot;font-size: 8px;&quot;&gt;(- 1945)&lt;/span&gt;&lt;br&gt;&lt;br&gt;&lt;/font&gt;" style="rounded=0;whiteSpace=wrap;html=1;" parent="1" vertex="1">
          <mxGeometry x="-120" y="30" width="130" height="60" as="geometry" />
        </mxCell>
        <mxCell id="aGWTZ41KhDJ6ELR5V0SO-10" value="" style="endArrow=none;html=1;rounded=0;entryX=0;entryY=0.5;entryDx=0;entryDy=0;exitX=1;exitY=0.5;exitDx=0;exitDy=0;" parent="1" source="aGWTZ41KhDJ6ELR5V0SO-8" target="aGWTZ41KhDJ6ELR5V0SO-9" edge="1">
          <mxGeometry width="50" height="50" relative="1" as="geometry">
            <mxPoint x="-300" y="80" as="sourcePoint" />
            <mxPoint x="-250" y="30" as="targetPoint" />
          </mxGeometry>
        </mxCell>
        <mxCell id="aGWTZ41KhDJ6ELR5V0SO-11" value="" style="endArrow=none;html=1;rounded=0;exitX=0.5;exitY=0;exitDx=0;exitDy=0;" parent="1" source="aGWTZ41KhDJ6ELR5V0SO-4" edge="1">
          <mxGeometry width="50" height="50" relative="1" as="geometry">
            <mxPoint x="-300" y="90" as="sourcePoint" />
            <mxPoint x="-140" y="60" as="targetPoint" />
          </mxGeometry>
        </mxCell>
        <mxCell id="aGWTZ41KhDJ6ELR5V0SO-12" value="&lt;div&gt;&lt;span style=&quot;background-color: transparent; color: light-dark(rgb(0, 0, 0), rgb(255, 255, 255)); font-size: 10px;&quot;&gt;Eulalia Freitas&lt;br&gt;&lt;/span&gt;&lt;span style=&quot;font-size: 8px; background-color: transparent; color: light-dark(rgb(0, 0, 0), rgb(255, 255, 255));&quot;&gt;()&lt;/span&gt;&lt;/div&gt;&lt;div&gt;&lt;font style=&quot;&quot;&gt;&lt;span style=&quot;font-size: 8px;&quot;&gt;&lt;br&gt;&lt;/span&gt;&lt;/font&gt;&lt;/div&gt;" style="rounded=0;whiteSpace=wrap;html=1;" parent="1" vertex="1">
          <mxGeometry x="70" y="30" width="130" height="60" as="geometry" />
        </mxCell>
        <mxCell id="aGWTZ41KhDJ6ELR5V0SO-13" value="&lt;font style=&quot;&quot;&gt;&lt;span style=&quot;font-size: 10px;&quot;&gt;Celestino Romeu&lt;/span&gt;&lt;/font&gt;&lt;div&gt;&lt;font style=&quot;&quot;&gt;&lt;span style=&quot;font-size: 8px;&quot;&gt;()&lt;/span&gt;&lt;br&gt;&lt;br&gt;&lt;/font&gt;&lt;/div&gt;" style="rounded=0;whiteSpace=wrap;html=1;" parent="1" vertex="1">
          <mxGeometry x="240" y="30" width="130" height="60" as="geometry" />
        </mxCell>
        <mxCell id="aGWTZ41KhDJ6ELR5V0SO-14" value="" style="endArrow=none;html=1;rounded=0;entryX=0;entryY=0.5;entryDx=0;entryDy=0;exitX=1;exitY=0.5;exitDx=0;exitDy=0;" parent="1" source="aGWTZ41KhDJ6ELR5V0SO-12" target="aGWTZ41KhDJ6ELR5V0SO-13" edge="1">
          <mxGeometry width="50" height="50" relative="1" as="geometry">
            <mxPoint x="120" y="40" as="sourcePoint" />
            <mxPoint x="170" y="-10" as="targetPoint" />
          </mxGeometry>
        </mxCell>
        <mxCell id="aGWTZ41KhDJ6ELR5V0SO-15" value="" style="endArrow=none;html=1;rounded=0;exitX=0.5;exitY=0;exitDx=0;exitDy=0;" parent="1" source="aGWTZ41KhDJ6ELR5V0SO-5" edge="1">
          <mxGeometry width="50" height="50" relative="1" as="geometry">
            <mxPoint x="140" y="20" as="sourcePoint" />
            <mxPoint x="220" y="60" as="targetPoint" />
          </mxGeometry>
        </mxCell>
        <mxCell id="aGWTZ41KhDJ6ELR5V0SO-16" value="" style="rounded=0;whiteSpace=wrap;html=1;" parent="1" vertex="1">
          <mxGeometry x="-370" y="130" width="140" height="60" as="geometry" />
        </mxCell>
        <mxCell id="aGWTZ41KhDJ6ELR5V0SO-17" value="" style="rounded=0;whiteSpace=wrap;html=1;" parent="1" vertex="1">
          <mxGeometry x="-530" y="130" width="140" height="60" as="geometry" />
        </mxCell>
        <mxCell id="aGWTZ41KhDJ6ELR5V0SO-18" value="" style="endArrow=none;html=1;rounded=0;" parent="1" edge="1">
          <mxGeometry width="50" height="50" relative="1" as="geometry">
            <mxPoint x="-460" y="110" as="sourcePoint" />
            <mxPoint x="-140" y="110" as="targetPoint" />
          </mxGeometry>
        </mxCell>
        <mxCell id="aGWTZ41KhDJ6ELR5V0SO-19" value="" style="endArrow=none;html=1;rounded=0;exitX=0.5;exitY=0;exitDx=0;exitDy=0;" parent="1" source="aGWTZ41KhDJ6ELR5V0SO-17" edge="1">
          <mxGeometry width="50" height="50" relative="1" as="geometry">
            <mxPoint x="-500" y="120" as="sourcePoint" />
            <mxPoint x="-460" y="110" as="targetPoint" />
          </mxGeometry>
        </mxCell>
        <mxCell id="aGWTZ41KhDJ6ELR5V0SO-20" value="" style="endArrow=none;html=1;rounded=0;exitX=0.5;exitY=0;exitDx=0;exitDy=0;" parent="1" source="aGWTZ41KhDJ6ELR5V0SO-16" edge="1">
          <mxGeometry width="50" height="50" relative="1" as="geometry">
            <mxPoint x="-460" y="90" as="sourcePoint" />
            <mxPoint x="-300" y="110" as="targetPoint" />
          </mxGeometry>
        </mxCell>
        <mxCell id="aGWTZ41KhDJ6ELR5V0SO-23" value="&lt;font style=&quot;&quot;&gt;&lt;span style=&quot;font-size: 10px;&quot;&gt;Jacob Gabbay&lt;br&gt;&lt;/span&gt;&lt;span style=&quot;font-size: 8px;&quot;&gt;(13/01/1924 - 18/07/2007)&lt;/span&gt;&lt;br&gt;&lt;i style=&quot;font-size: 6px;&quot;&gt;Baçorá, Iraque&lt;/i&gt;&lt;/font&gt;" style="rounded=0;whiteSpace=wrap;html=1;" parent="1" vertex="1">
          <mxGeometry x="1180" y="210" width="120" height="60" as="geometry" />
        </mxCell>
        <mxCell id="aGWTZ41KhDJ6ELR5V0SO-24" value="" style="endArrow=none;html=1;rounded=0;" parent="1" edge="1">
          <mxGeometry width="50" height="50" relative="1" as="geometry">
            <mxPoint x="1310" y="150" as="sourcePoint" />
            <mxPoint x="1310" y="110" as="targetPoint" />
          </mxGeometry>
        </mxCell>
        <mxCell id="aGWTZ41KhDJ6ELR5V0SO-25" value="" style="endArrow=none;html=1;rounded=0;" parent="1" edge="1">
          <mxGeometry width="50" height="50" relative="1" as="geometry">
            <mxPoint x="1240" y="150" as="sourcePoint" />
            <mxPoint x="1380" y="150" as="targetPoint" />
          </mxGeometry>
        </mxCell>
        <mxCell id="aGWTZ41KhDJ6ELR5V0SO-26" value="" style="endArrow=none;html=1;rounded=0;exitX=0.5;exitY=0;exitDx=0;exitDy=0;" parent="1" source="aGWTZ41KhDJ6ELR5V0SO-23" edge="1">
          <mxGeometry width="50" height="50" relative="1" as="geometry">
            <mxPoint x="1370" y="170" as="sourcePoint" />
            <mxPoint x="1240" y="150" as="targetPoint" />
          </mxGeometry>
        </mxCell>
        <mxCell id="QKL42LECFhcvYfOsLsUi-1" value="&lt;font style=&quot;&quot;&gt;&lt;font style=&quot;font-size: 10px;&quot;&gt;Silman Kehela&lt;br&gt;&lt;/font&gt;&lt;span style=&quot;font-size: 8px;&quot;&gt;()&lt;/span&gt;&lt;/font&gt;&lt;div&gt;&lt;font style=&quot;font-size: 8px;&quot;&gt;&lt;br&gt;&lt;/font&gt;&lt;/div&gt;" style="rounded=0;whiteSpace=wrap;html=1;" parent="1" vertex="1">
          <mxGeometry x="5200" y="10" width="120" height="60" as="geometry" />
        </mxCell>
        <mxCell id="QKL42LECFhcvYfOsLsUi-3" value="&lt;div&gt;&lt;font style=&quot;font-size: 8px;&quot;&gt;&lt;br&gt;&lt;/font&gt;&lt;/div&gt;" style="rounded=0;whiteSpace=wrap;html=1;" parent="1" vertex="1">
          <mxGeometry x="5360" y="10" width="120" height="60" as="geometry" />
        </mxCell>
        <mxCell id="QKL42LECFhcvYfOsLsUi-4" value="" style="endArrow=none;html=1;rounded=0;entryX=0;entryY=0.5;entryDx=0;entryDy=0;exitX=1;exitY=0.5;exitDx=0;exitDy=0;" parent="1" source="QKL42LECFhcvYfOsLsUi-1" target="QKL42LECFhcvYfOsLsUi-3" edge="1">
          <mxGeometry width="50" height="50" relative="1" as="geometry">
            <mxPoint x="5220" y="-30" as="sourcePoint" />
            <mxPoint x="5270" y="-80" as="targetPoint" />
          </mxGeometry>
        </mxCell>
        <mxCell id="QKL42LECFhcvYfOsLsUi-5" value="" style="endArrow=none;html=1;rounded=0;exitX=0.5;exitY=0;exitDx=0;exitDy=0;" parent="1" source="eL84m_089L8rZWCyLEAg-21" edge="1">
          <mxGeometry width="50" height="50" relative="1" as="geometry">
            <mxPoint x="5210" y="-20" as="sourcePoint" />
            <mxPoint x="5340" y="40" as="targetPoint" />
          </mxGeometry>
        </mxCell>
        <mxCell id="QKL42LECFhcvYfOsLsUi-8" value="&lt;font style=&quot;&quot;&gt;&lt;font style=&quot;font-size: 10px;&quot;&gt;Naima Horesh&lt;br&gt;&lt;/font&gt;&lt;span style=&quot;font-size: 8px;&quot;&gt;()&lt;/span&gt;&lt;/font&gt;" style="rounded=0;whiteSpace=wrap;html=1;" parent="1" vertex="1">
          <mxGeometry x="5370" y="210" width="120" height="60" as="geometry" />
        </mxCell>
        <mxCell id="QKL42LECFhcvYfOsLsUi-11" value="&lt;font style=&quot;&quot;&gt;&lt;font style=&quot;font-size: 10px;&quot;&gt;Selman Horesh&lt;br&gt;&lt;/font&gt;&lt;span style=&quot;font-size: 8px;&quot;&gt;()&lt;/span&gt;&lt;/font&gt;" style="rounded=0;whiteSpace=wrap;html=1;" parent="1" vertex="1">
          <mxGeometry x="5080" y="210" width="120" height="60" as="geometry" />
        </mxCell>
        <mxCell id="QKL42LECFhcvYfOsLsUi-12" value="&lt;font style=&quot;&quot;&gt;&lt;font style=&quot;font-size: 10px;&quot;&gt;Yehushua Horesh&lt;br&gt;&lt;/font&gt;&lt;span style=&quot;font-size: 8px;&quot;&gt;()&lt;/span&gt;&lt;/font&gt;" style="rounded=0;whiteSpace=wrap;html=1;" parent="1" vertex="1">
          <mxGeometry x="4920" y="210" width="120" height="60" as="geometry" />
        </mxCell>
        <mxCell id="QKL42LECFhcvYfOsLsUi-14" value="&lt;font style=&quot;&quot;&gt;&lt;font style=&quot;font-size: 10px;&quot;&gt;Salman Horesh&lt;br&gt;&lt;/font&gt;&lt;span style=&quot;font-size: 8px;&quot;&gt;( - 11/03/2011)&lt;br&gt;Iraque&lt;/span&gt;&lt;/font&gt;" style="rounded=0;whiteSpace=wrap;html=1;" parent="1" vertex="1">
          <mxGeometry x="4350" y="210" width="120" height="60" as="geometry" />
        </mxCell>
        <mxCell id="QKL42LECFhcvYfOsLsUi-15" value="&lt;font style=&quot;&quot;&gt;&lt;font style=&quot;font-size: 10px;&quot;&gt;George Horesh&lt;br&gt;&lt;/font&gt;&lt;span style=&quot;font-size: 8px;&quot;&gt;()&lt;br&gt;&lt;br&gt;&lt;/span&gt;&lt;/font&gt;" style="rounded=0;whiteSpace=wrap;html=1;" parent="1" vertex="1">
          <mxGeometry x="3880" y="210" width="120" height="60" as="geometry" />
        </mxCell>
        <mxCell id="QKL42LECFhcvYfOsLsUi-16" value="&lt;font style=&quot;&quot;&gt;&lt;font style=&quot;font-size: 10px;&quot;&gt;Nissim Horesh&lt;br&gt;&lt;/font&gt;&lt;font style=&quot;&quot;&gt;&lt;span style=&quot;font-size: 8px;&quot;&gt;(1908 - 1997)&lt;/span&gt;&lt;/font&gt;&lt;/font&gt;&lt;div&gt;&lt;font style=&quot;&quot;&gt;&lt;font style=&quot;&quot;&gt;&lt;i style=&quot;font-size: 6px;&quot;&gt;Baçorá, Iraque&lt;/i&gt;&lt;/font&gt;&lt;/font&gt;&lt;/div&gt;" style="rounded=0;whiteSpace=wrap;html=1;" parent="1" vertex="1">
          <mxGeometry x="3510" y="210" width="120" height="60" as="geometry" />
        </mxCell>
        <mxCell id="QKL42LECFhcvYfOsLsUi-17" value="&lt;div&gt;&lt;font style=&quot;font-size: 10px;&quot;&gt;Florence Alazraki&lt;/font&gt;&lt;/div&gt;&lt;div&gt;&lt;font style=&quot;font-size: 8px;&quot;&gt;()&lt;/font&gt;&lt;/div&gt;&lt;div&gt;&lt;font style=&quot;font-size: 8px;&quot;&gt;&lt;br&gt;&lt;/font&gt;&lt;/div&gt;" style="rounded=0;whiteSpace=wrap;html=1;" parent="1" vertex="1">
          <mxGeometry x="3350" y="210" width="120" height="60" as="geometry" />
        </mxCell>
        <mxCell id="QKL42LECFhcvYfOsLsUi-18" value="" style="endArrow=none;html=1;rounded=0;" parent="1" edge="1">
          <mxGeometry width="50" height="50" relative="1" as="geometry">
            <mxPoint x="4580" y="180" as="sourcePoint" />
            <mxPoint x="4580" y="120" as="targetPoint" />
          </mxGeometry>
        </mxCell>
        <mxCell id="QKL42LECFhcvYfOsLsUi-19" value="" style="endArrow=none;html=1;rounded=0;" parent="1" edge="1">
          <mxGeometry width="50" height="50" relative="1" as="geometry">
            <mxPoint x="2320" y="180" as="sourcePoint" />
            <mxPoint x="5430" y="180" as="targetPoint" />
          </mxGeometry>
        </mxCell>
        <mxCell id="QKL42LECFhcvYfOsLsUi-20" value="" style="endArrow=none;html=1;rounded=0;exitX=0.5;exitY=0;exitDx=0;exitDy=0;" parent="1" edge="1">
          <mxGeometry width="50" height="50" relative="1" as="geometry">
            <mxPoint x="3109.85" y="210" as="sourcePoint" />
            <mxPoint x="3109.85" y="180" as="targetPoint" />
          </mxGeometry>
        </mxCell>
        <mxCell id="QKL42LECFhcvYfOsLsUi-21" value="" style="endArrow=none;html=1;rounded=0;exitX=0.5;exitY=0;exitDx=0;exitDy=0;" parent="1" source="QKL42LECFhcvYfOsLsUi-16" edge="1">
          <mxGeometry width="50" height="50" relative="1" as="geometry">
            <mxPoint x="3569.77" y="200" as="sourcePoint" />
            <mxPoint x="3570" y="180" as="targetPoint" />
          </mxGeometry>
        </mxCell>
        <mxCell id="QKL42LECFhcvYfOsLsUi-22" value="" style="endArrow=none;html=1;rounded=0;exitX=0.5;exitY=0;exitDx=0;exitDy=0;" parent="1" source="QKL42LECFhcvYfOsLsUi-15" edge="1">
          <mxGeometry width="50" height="50" relative="1" as="geometry">
            <mxPoint x="3640" y="220" as="sourcePoint" />
            <mxPoint x="3940" y="180" as="targetPoint" />
          </mxGeometry>
        </mxCell>
        <mxCell id="QKL42LECFhcvYfOsLsUi-23" value="" style="endArrow=none;html=1;rounded=0;exitX=0.5;exitY=0;exitDx=0;exitDy=0;" parent="1" source="QKL42LECFhcvYfOsLsUi-14" edge="1">
          <mxGeometry width="50" height="50" relative="1" as="geometry">
            <mxPoint x="4260" y="210" as="sourcePoint" />
            <mxPoint x="4410" y="180" as="targetPoint" />
          </mxGeometry>
        </mxCell>
        <mxCell id="QKL42LECFhcvYfOsLsUi-25" value="" style="endArrow=none;html=1;rounded=0;exitX=0.5;exitY=0;exitDx=0;exitDy=0;" parent="1" source="QKL42LECFhcvYfOsLsUi-12" edge="1">
          <mxGeometry width="50" height="50" relative="1" as="geometry">
            <mxPoint x="4830" y="210" as="sourcePoint" />
            <mxPoint x="4980" y="180" as="targetPoint" />
          </mxGeometry>
        </mxCell>
        <mxCell id="QKL42LECFhcvYfOsLsUi-26" value="" style="endArrow=none;html=1;rounded=0;exitX=0.5;exitY=0;exitDx=0;exitDy=0;" parent="1" source="QKL42LECFhcvYfOsLsUi-11" edge="1">
          <mxGeometry width="50" height="50" relative="1" as="geometry">
            <mxPoint x="4990" y="210" as="sourcePoint" />
            <mxPoint x="5140" y="180" as="targetPoint" />
          </mxGeometry>
        </mxCell>
        <mxCell id="QKL42LECFhcvYfOsLsUi-28" value="" style="endArrow=none;html=1;rounded=0;exitX=0.5;exitY=0;exitDx=0;exitDy=0;" parent="1" source="QKL42LECFhcvYfOsLsUi-8" edge="1">
          <mxGeometry width="50" height="50" relative="1" as="geometry">
            <mxPoint x="5280" y="210" as="sourcePoint" />
            <mxPoint x="5430" y="180" as="targetPoint" />
          </mxGeometry>
        </mxCell>
        <mxCell id="QKL42LECFhcvYfOsLsUi-31" value="&lt;font style=&quot;font-size: 10px;&quot;&gt;Khedouri Horesh&lt;/font&gt;&lt;div&gt;&lt;font style=&quot;font-size: 8px;&quot;&gt;()&lt;/font&gt;&lt;/div&gt;&lt;div&gt;&lt;font style=&quot;font-size: 8px;&quot;&gt;&lt;i style=&quot;font-size: 6px;&quot;&gt;Baçorá, Iraque&lt;/i&gt;&lt;/font&gt;&lt;/div&gt;" style="rounded=0;whiteSpace=wrap;html=1;" parent="1" vertex="1">
          <mxGeometry x="3050" y="210" width="120" height="60" as="geometry" />
        </mxCell>
        <mxCell id="QKL42LECFhcvYfOsLsUi-32" value="" style="endArrow=none;html=1;rounded=0;entryX=0;entryY=0.5;entryDx=0;entryDy=0;exitX=1;exitY=0.5;exitDx=0;exitDy=0;" parent="1" source="QKL42LECFhcvYfOsLsUi-33" target="QKL42LECFhcvYfOsLsUi-17" edge="1">
          <mxGeometry width="50" height="50" relative="1" as="geometry">
            <mxPoint x="3350" y="150" as="sourcePoint" />
            <mxPoint x="3400" y="100" as="targetPoint" />
          </mxGeometry>
        </mxCell>
        <mxCell id="QKL42LECFhcvYfOsLsUi-36" value="&lt;font style=&quot;&quot;&gt;&lt;font style=&quot;&quot;&gt;&lt;span style=&quot;font-size: 10px;&quot;&gt;Rivka Habob&lt;/span&gt;&lt;/font&gt;&lt;/font&gt;&lt;div&gt;&lt;font style=&quot;&quot;&gt;&lt;font style=&quot;&quot;&gt;&lt;span style=&quot;font-size: 8px;&quot;&gt;()&lt;/span&gt;&lt;/font&gt;&lt;/font&gt;&lt;div&gt;&lt;br&gt;&lt;/div&gt;&lt;/div&gt;" style="rounded=0;whiteSpace=wrap;html=1;" parent="1" vertex="1">
          <mxGeometry x="3670" y="210" width="120" height="60" as="geometry" />
        </mxCell>
        <mxCell id="QKL42LECFhcvYfOsLsUi-37" value="" style="endArrow=none;html=1;rounded=0;exitX=1;exitY=0.5;exitDx=0;exitDy=0;entryX=0;entryY=0.5;entryDx=0;entryDy=0;" parent="1" source="QKL42LECFhcvYfOsLsUi-16" target="QKL42LECFhcvYfOsLsUi-36" edge="1">
          <mxGeometry width="50" height="50" relative="1" as="geometry">
            <mxPoint x="3670" y="300" as="sourcePoint" />
            <mxPoint x="3720" y="250" as="targetPoint" />
          </mxGeometry>
        </mxCell>
        <mxCell id="QKL42LECFhcvYfOsLsUi-38" value="&lt;font style=&quot;&quot;&gt;&lt;font style=&quot;&quot;&gt;&lt;span style=&quot;font-size: 10px;&quot;&gt;Shaoul Horesh&lt;br&gt;&lt;/span&gt;&lt;span style=&quot;font-size: 8px;&quot;&gt;()&lt;/span&gt;&lt;/font&gt;&lt;/font&gt;&lt;div&gt;&lt;br&gt;&lt;/div&gt;" style="rounded=0;whiteSpace=wrap;html=1;" parent="1" vertex="1">
          <mxGeometry x="3510" y="310" width="120" height="60" as="geometry" />
        </mxCell>
        <mxCell id="QKL42LECFhcvYfOsLsUi-39" value="&lt;font style=&quot;&quot;&gt;&lt;font style=&quot;&quot;&gt;&lt;span style=&quot;font-size: 10px;&quot;&gt;Oner Horesh&lt;/span&gt;&lt;/font&gt;&lt;/font&gt;&lt;div&gt;&lt;font style=&quot;&quot;&gt;&lt;font style=&quot;&quot;&gt;&lt;span style=&quot;font-size: 8px;&quot;&gt;()&lt;/span&gt;&lt;/font&gt;&lt;/font&gt;&lt;div&gt;&lt;br&gt;&lt;/div&gt;&lt;/div&gt;" style="rounded=0;whiteSpace=wrap;html=1;" parent="1" vertex="1">
          <mxGeometry x="3670" y="310" width="120" height="60" as="geometry" />
        </mxCell>
        <mxCell id="QKL42LECFhcvYfOsLsUi-40" value="" style="endArrow=none;html=1;rounded=0;" parent="1" edge="1">
          <mxGeometry width="50" height="50" relative="1" as="geometry">
            <mxPoint x="3650" y="290" as="sourcePoint" />
            <mxPoint x="3650" y="240" as="targetPoint" />
          </mxGeometry>
        </mxCell>
        <mxCell id="QKL42LECFhcvYfOsLsUi-41" value="" style="endArrow=none;html=1;rounded=0;" parent="1" edge="1">
          <mxGeometry width="50" height="50" relative="1" as="geometry">
            <mxPoint x="3570" y="290" as="sourcePoint" />
            <mxPoint x="3730" y="290" as="targetPoint" />
          </mxGeometry>
        </mxCell>
        <mxCell id="QKL42LECFhcvYfOsLsUi-42" value="" style="endArrow=none;html=1;rounded=0;exitX=0.5;exitY=0;exitDx=0;exitDy=0;" parent="1" source="QKL42LECFhcvYfOsLsUi-39" edge="1">
          <mxGeometry width="50" height="50" relative="1" as="geometry">
            <mxPoint x="3750" y="330" as="sourcePoint" />
            <mxPoint x="3730" y="290" as="targetPoint" />
          </mxGeometry>
        </mxCell>
        <mxCell id="QKL42LECFhcvYfOsLsUi-43" value="" style="endArrow=none;html=1;rounded=0;exitX=0.5;exitY=0;exitDx=0;exitDy=0;" parent="1" source="QKL42LECFhcvYfOsLsUi-38" edge="1">
          <mxGeometry width="50" height="50" relative="1" as="geometry">
            <mxPoint x="3620" y="340" as="sourcePoint" />
            <mxPoint x="3570" y="290" as="targetPoint" />
          </mxGeometry>
        </mxCell>
        <mxCell id="QKL42LECFhcvYfOsLsUi-44" value="" style="endArrow=none;html=1;rounded=0;entryX=1;entryY=0.5;entryDx=0;entryDy=0;exitX=0;exitY=0.5;exitDx=0;exitDy=0;" parent="1" source="QKL42LECFhcvYfOsLsUi-76" edge="1">
          <mxGeometry width="50" height="50" relative="1" as="geometry">
            <mxPoint x="6140" y="340" as="sourcePoint" />
            <mxPoint x="5460" y="340" as="targetPoint" />
          </mxGeometry>
        </mxCell>
        <mxCell id="QKL42LECFhcvYfOsLsUi-67" value="&lt;font style=&quot;font-size: 10px;&quot;&gt;Marcelo Surian Brettas&lt;/font&gt;&lt;div&gt;&lt;span style=&quot;font-size: 8px;&quot;&gt;(31/03/19xx - )&lt;/span&gt;&lt;/div&gt;&lt;div&gt;&lt;i&gt;&lt;font style=&quot;font-size: 6px;&quot;&gt;São Paulo, Brasil&lt;/font&gt;&lt;/i&gt;&lt;span style=&quot;font-size: 8px;&quot;&gt;&lt;/span&gt;&lt;/div&gt;" style="rounded=0;whiteSpace=wrap;html=1;" parent="1" vertex="1">
          <mxGeometry x="1990" y="310" width="120" height="60" as="geometry" />
        </mxCell>
        <mxCell id="QKL42LECFhcvYfOsLsUi-68" value="" style="endArrow=none;html=1;rounded=0;exitX=0;exitY=0.5;exitDx=0;exitDy=0;entryX=1;entryY=0.5;entryDx=0;entryDy=0;" parent="1" source="QKL42LECFhcvYfOsLsUi-67" target="QKL42LECFhcvYfOsLsUi-77" edge="1">
          <mxGeometry width="50" height="50" relative="1" as="geometry">
            <mxPoint x="1880" y="750" as="sourcePoint" />
            <mxPoint x="1760" y="660" as="targetPoint" />
          </mxGeometry>
        </mxCell>
        <mxCell id="QKL42LECFhcvYfOsLsUi-69" value="&lt;font style=&quot;font-size: 10px;&quot;&gt;Theo Horesh Brettas&lt;/font&gt;&lt;div&gt;&lt;span style=&quot;font-size: 8px;&quot;&gt;(25/02/1993 - )&lt;/span&gt;&lt;br style=&quot;font-size: 8px;&quot;&gt;&lt;i&gt;&lt;font style=&quot;font-size: 6px;&quot;&gt;São Paulo, Brasil&lt;/font&gt;&lt;/i&gt;&lt;/div&gt;" style="rounded=0;whiteSpace=wrap;html=1;" parent="1" vertex="1">
          <mxGeometry x="1740" y="530" width="120" height="60" as="geometry" />
        </mxCell>
        <mxCell id="QKL42LECFhcvYfOsLsUi-70" value="&lt;font style=&quot;&quot;&gt;&lt;div style=&quot;&quot;&gt;&lt;font style=&quot;font-size: 10px;&quot;&gt;Julia Horesh Brettas&lt;/font&gt;&lt;/div&gt;&lt;div style=&quot;font-size: 12px;&quot;&gt;&lt;span style=&quot;font-size: 8px;&quot;&gt;(17/06/1988 - )&lt;/span&gt;&lt;br style=&quot;font-size: 8px;&quot;&gt;&lt;i&gt;&lt;font style=&quot;font-size: 6px;&quot;&gt;São Paulo, Brasil&lt;/font&gt;&lt;/i&gt;&lt;/div&gt;&lt;/font&gt;" style="rounded=0;whiteSpace=wrap;html=1;" parent="1" vertex="1">
          <mxGeometry x="1890" y="530" width="120" height="60" as="geometry" />
        </mxCell>
        <mxCell id="QKL42LECFhcvYfOsLsUi-71" value="" style="endArrow=none;html=1;rounded=0;exitX=0.5;exitY=0;exitDx=0;exitDy=0;" parent="1" source="QKL42LECFhcvYfOsLsUi-70" edge="1">
          <mxGeometry width="50" height="50" relative="1" as="geometry">
            <mxPoint x="1950" y="420" as="sourcePoint" />
            <mxPoint x="1950" y="340" as="targetPoint" />
          </mxGeometry>
        </mxCell>
        <mxCell id="QKL42LECFhcvYfOsLsUi-72" value="&lt;span style=&quot;font-size: 8px;&quot;&gt;Gabriela Horesh Brettas&lt;/span&gt;&lt;div&gt;&lt;span style=&quot;font-size: 8px;&quot;&gt;(10/10/1996 - )&lt;/span&gt;&lt;br style=&quot;font-size: 8px;&quot;&gt;&lt;i&gt;&lt;font style=&quot;font-size: 6px;&quot;&gt;São Paulo, Brasil&lt;/font&gt;&lt;/i&gt;&lt;/div&gt;" style="rounded=0;whiteSpace=wrap;html=1;" parent="1" vertex="1">
          <mxGeometry x="2040" y="530" width="120" height="60" as="geometry" />
        </mxCell>
        <mxCell id="QKL42LECFhcvYfOsLsUi-73" value="" style="endArrow=none;html=1;rounded=0;" parent="1" edge="1">
          <mxGeometry width="50" height="50" relative="1" as="geometry">
            <mxPoint x="1800" y="400" as="sourcePoint" />
            <mxPoint x="2100" y="400" as="targetPoint" />
          </mxGeometry>
        </mxCell>
        <mxCell id="QKL42LECFhcvYfOsLsUi-74" value="" style="endArrow=none;html=1;rounded=0;exitX=0.5;exitY=0;exitDx=0;exitDy=0;" parent="1" source="QKL42LECFhcvYfOsLsUi-69" edge="1">
          <mxGeometry width="50" height="50" relative="1" as="geometry">
            <mxPoint x="1480" y="450" as="sourcePoint" />
            <mxPoint x="1800" y="400" as="targetPoint" />
          </mxGeometry>
        </mxCell>
        <mxCell id="QKL42LECFhcvYfOsLsUi-75" value="" style="endArrow=none;html=1;rounded=0;exitX=0.5;exitY=0;exitDx=0;exitDy=0;" parent="1" source="QKL42LECFhcvYfOsLsUi-72" edge="1">
          <mxGeometry width="50" height="50" relative="1" as="geometry">
            <mxPoint x="2110" y="530" as="sourcePoint" />
            <mxPoint x="2099.84" y="400" as="targetPoint" />
          </mxGeometry>
        </mxCell>
        <mxCell id="QKL42LECFhcvYfOsLsUi-77" value="&lt;font style=&quot;font-size: 10px;&quot;&gt;Viviane Horesh&lt;br&gt;&lt;/font&gt;&lt;span style=&quot;font-size: 8px;&quot;&gt;(29/07/1958 - )&lt;/span&gt;&lt;div&gt;&lt;i&gt;&lt;font style=&quot;font-size: 6px;&quot;&gt;São Paulo, Brasil&lt;/font&gt;&lt;/i&gt;&lt;/div&gt;" style="rounded=0;whiteSpace=wrap;html=1;" parent="1" vertex="1">
          <mxGeometry x="1790" y="310" width="120" height="60" as="geometry" />
        </mxCell>
        <mxCell id="QKL42LECFhcvYfOsLsUi-78" value="&lt;font style=&quot;&quot;&gt;&lt;span style=&quot;font-size: 10px;&quot;&gt;Maria&lt;br&gt;&lt;/span&gt;&lt;span style=&quot;font-size: 8px;&quot;&gt;()&lt;br&gt;&lt;br&gt;&lt;/span&gt;&lt;/font&gt;" style="rounded=0;whiteSpace=wrap;html=1;" parent="1" vertex="1">
          <mxGeometry x="4040" y="210" width="120" height="60" as="geometry" />
        </mxCell>
        <mxCell id="QKL42LECFhcvYfOsLsUi-79" value="" style="endArrow=none;html=1;rounded=0;entryX=0;entryY=0.5;entryDx=0;entryDy=0;exitX=1;exitY=0.5;exitDx=0;exitDy=0;" parent="1" source="QKL42LECFhcvYfOsLsUi-15" target="QKL42LECFhcvYfOsLsUi-78" edge="1">
          <mxGeometry width="50" height="50" relative="1" as="geometry">
            <mxPoint x="3640" y="270" as="sourcePoint" />
            <mxPoint x="3690" y="220" as="targetPoint" />
          </mxGeometry>
        </mxCell>
        <mxCell id="QKL42LECFhcvYfOsLsUi-80" value="" style="endArrow=none;html=1;rounded=0;entryX=0.5;entryY=0;entryDx=0;entryDy=0;" parent="1" target="QKL42LECFhcvYfOsLsUi-81" edge="1">
          <mxGeometry width="50" height="50" relative="1" as="geometry">
            <mxPoint x="4020" y="240" as="sourcePoint" />
            <mxPoint x="4020" y="290" as="targetPoint" />
          </mxGeometry>
        </mxCell>
        <mxCell id="QKL42LECFhcvYfOsLsUi-81" value="&lt;div&gt;&lt;font style=&quot;&quot;&gt;&lt;font style=&quot;&quot;&gt;&lt;span style=&quot;font-size: 10px;&quot;&gt;Jack Horesh&lt;br&gt;&lt;/span&gt;&lt;span style=&quot;font-size: 8px;&quot;&gt;()&lt;/span&gt;&lt;/font&gt;&lt;/font&gt;&lt;div&gt;&lt;br&gt;&lt;/div&gt;&lt;/div&gt;" style="rounded=0;whiteSpace=wrap;html=1;" parent="1" vertex="1">
          <mxGeometry x="3960" y="310" width="120" height="60" as="geometry" />
        </mxCell>
        <mxCell id="QKL42LECFhcvYfOsLsUi-82" value="" style="endArrow=none;html=1;rounded=0;entryX=0;entryY=0.5;entryDx=0;entryDy=0;exitX=1;exitY=0.5;exitDx=0;exitDy=0;" parent="1" source="QKL42LECFhcvYfOsLsUi-31" target="QKL42LECFhcvYfOsLsUi-33" edge="1">
          <mxGeometry width="50" height="50" relative="1" as="geometry">
            <mxPoint x="3180" y="240" as="sourcePoint" />
            <mxPoint x="3350" y="240" as="targetPoint" />
          </mxGeometry>
        </mxCell>
        <mxCell id="QKL42LECFhcvYfOsLsUi-33" value="&lt;div&gt;&lt;font style=&quot;font-size: 10px;&quot;&gt;Victoria Cohen&lt;/font&gt;&lt;/div&gt;&lt;div&gt;&lt;font style=&quot;font-size: 8px;&quot;&gt;()&lt;/font&gt;&lt;/div&gt;&lt;div&gt;&lt;font style=&quot;font-size: 8px;&quot;&gt;&lt;br&gt;&lt;/font&gt;&lt;/div&gt;" style="rounded=0;whiteSpace=wrap;html=1;" parent="1" vertex="1">
          <mxGeometry x="3200" y="210" width="120" height="60" as="geometry" />
        </mxCell>
        <mxCell id="QKL42LECFhcvYfOsLsUi-83" value="&lt;font style=&quot;&quot;&gt;&lt;span style=&quot;font-size: 10px;&quot;&gt;Gloria&lt;/span&gt;&lt;/font&gt;&lt;div&gt;&lt;font style=&quot;&quot;&gt;&lt;span style=&quot;font-size: 8px;&quot;&gt;()&lt;br&gt;&lt;br&gt;&lt;/span&gt;&lt;/font&gt;&lt;/div&gt;" style="rounded=0;whiteSpace=wrap;html=1;" parent="1" vertex="1">
          <mxGeometry x="4510" y="210" width="120" height="60" as="geometry" />
        </mxCell>
        <mxCell id="QKL42LECFhcvYfOsLsUi-84" value="" style="endArrow=none;html=1;rounded=0;entryX=0;entryY=0.5;entryDx=0;entryDy=0;exitX=1;exitY=0.5;exitDx=0;exitDy=0;" parent="1" source="QKL42LECFhcvYfOsLsUi-14" target="QKL42LECFhcvYfOsLsUi-83" edge="1">
          <mxGeometry width="50" height="50" relative="1" as="geometry">
            <mxPoint x="4420" y="310" as="sourcePoint" />
            <mxPoint x="4470" y="260" as="targetPoint" />
          </mxGeometry>
        </mxCell>
        <mxCell id="QKL42LECFhcvYfOsLsUi-85" value="&lt;div&gt;&lt;font style=&quot;&quot;&gt;&lt;font style=&quot;&quot;&gt;&lt;span style=&quot;font-size: 10px;&quot;&gt;Diana Horesh&lt;br&gt;&lt;/span&gt;&lt;span style=&quot;font-size: 8px;&quot;&gt;()&lt;/span&gt;&lt;/font&gt;&lt;/font&gt;&lt;div&gt;&lt;br&gt;&lt;/div&gt;&lt;/div&gt;" style="rounded=0;whiteSpace=wrap;html=1;" parent="1" vertex="1">
          <mxGeometry x="4350" y="310" width="120" height="60" as="geometry" />
        </mxCell>
        <mxCell id="QKL42LECFhcvYfOsLsUi-86" value="&lt;br&gt;&lt;div&gt;&lt;br&gt;&lt;/div&gt;" style="rounded=0;whiteSpace=wrap;html=1;" parent="1" vertex="1">
          <mxGeometry x="4510" y="310" width="120" height="60" as="geometry" />
        </mxCell>
        <mxCell id="QKL42LECFhcvYfOsLsUi-87" value="&lt;div&gt;&lt;div&gt;&lt;br&gt;&lt;/div&gt;&lt;/div&gt;" style="rounded=0;whiteSpace=wrap;html=1;" parent="1" vertex="1">
          <mxGeometry x="4670" y="310" width="120" height="60" as="geometry" />
        </mxCell>
        <mxCell id="QKL42LECFhcvYfOsLsUi-88" value="&lt;div&gt;&lt;font style=&quot;&quot;&gt;&lt;font style=&quot;&quot;&gt;&lt;span style=&quot;font-size: 10px;&quot;&gt;Eli Fattal&lt;br&gt;&lt;/span&gt;&lt;span style=&quot;font-size: 8px;&quot;&gt;()&lt;/span&gt;&lt;/font&gt;&lt;/font&gt;&lt;div&gt;&lt;br&gt;&lt;/div&gt;&lt;/div&gt;" style="rounded=0;whiteSpace=wrap;html=1;" parent="1" vertex="1">
          <mxGeometry x="4190" y="310" width="120" height="60" as="geometry" />
        </mxCell>
        <mxCell id="QKL42LECFhcvYfOsLsUi-89" value="" style="endArrow=none;html=1;rounded=0;entryX=0;entryY=0.5;entryDx=0;entryDy=0;exitX=1;exitY=0.5;exitDx=0;exitDy=0;" parent="1" source="QKL42LECFhcvYfOsLsUi-86" target="QKL42LECFhcvYfOsLsUi-87" edge="1">
          <mxGeometry width="50" height="50" relative="1" as="geometry">
            <mxPoint x="4480" y="460" as="sourcePoint" />
            <mxPoint x="4530" y="410" as="targetPoint" />
          </mxGeometry>
        </mxCell>
        <mxCell id="QKL42LECFhcvYfOsLsUi-90" value="" style="endArrow=none;html=1;rounded=0;entryX=0;entryY=0.5;entryDx=0;entryDy=0;exitX=1;exitY=0.5;exitDx=0;exitDy=0;" parent="1" source="QKL42LECFhcvYfOsLsUi-88" target="QKL42LECFhcvYfOsLsUi-85" edge="1">
          <mxGeometry width="50" height="50" relative="1" as="geometry">
            <mxPoint x="4320" y="460" as="sourcePoint" />
            <mxPoint x="4370" y="410" as="targetPoint" />
          </mxGeometry>
        </mxCell>
        <mxCell id="QKL42LECFhcvYfOsLsUi-91" value="" style="endArrow=none;html=1;rounded=0;" parent="1" edge="1">
          <mxGeometry width="50" height="50" relative="1" as="geometry">
            <mxPoint x="4490" y="290" as="sourcePoint" />
            <mxPoint x="4490" y="240" as="targetPoint" />
          </mxGeometry>
        </mxCell>
        <mxCell id="QKL42LECFhcvYfOsLsUi-92" value="" style="endArrow=none;html=1;rounded=0;" parent="1" edge="1">
          <mxGeometry width="50" height="50" relative="1" as="geometry">
            <mxPoint x="4410" y="290" as="sourcePoint" />
            <mxPoint x="4570" y="290" as="targetPoint" />
          </mxGeometry>
        </mxCell>
        <mxCell id="QKL42LECFhcvYfOsLsUi-93" value="" style="endArrow=none;html=1;rounded=0;exitX=0.5;exitY=0;exitDx=0;exitDy=0;" parent="1" source="QKL42LECFhcvYfOsLsUi-85" edge="1">
          <mxGeometry width="50" height="50" relative="1" as="geometry">
            <mxPoint x="4520" y="420" as="sourcePoint" />
            <mxPoint x="4410" y="290" as="targetPoint" />
          </mxGeometry>
        </mxCell>
        <mxCell id="QKL42LECFhcvYfOsLsUi-94" value="" style="endArrow=none;html=1;rounded=0;exitX=0.5;exitY=0;exitDx=0;exitDy=0;" parent="1" source="QKL42LECFhcvYfOsLsUi-86" edge="1">
          <mxGeometry width="50" height="50" relative="1" as="geometry">
            <mxPoint x="4520" y="420" as="sourcePoint" />
            <mxPoint x="4570" y="290" as="targetPoint" />
          </mxGeometry>
        </mxCell>
        <mxCell id="QKL42LECFhcvYfOsLsUi-95" value="&lt;font style=&quot;&quot;&gt;&lt;span style=&quot;font-size: 10px;&quot;&gt;Gabriela Romero&lt;/span&gt;&lt;/font&gt;&lt;div&gt;&lt;font style=&quot;&quot;&gt;&lt;span style=&quot;font-size: 8px;&quot;&gt;()&lt;/span&gt;&lt;br&gt;&lt;br&gt;&lt;/font&gt;&lt;/div&gt;" style="rounded=0;whiteSpace=wrap;html=1;" parent="1" vertex="1">
          <mxGeometry x="-340" y="530" width="140" height="60" as="geometry" />
        </mxCell>
        <mxCell id="QKL42LECFhcvYfOsLsUi-96" value="&lt;font style=&quot;&quot;&gt;&lt;span style=&quot;font-size: 10px;&quot;&gt;Antônio Romero de Macedo&lt;/span&gt;&lt;/font&gt;&lt;div&gt;&lt;font style=&quot;&quot;&gt;&lt;span style=&quot;font-size: 8px;&quot;&gt;(22/06/2016 - )&lt;/span&gt;&lt;br&gt;&lt;i style=&quot;&quot;&gt;&lt;font style=&quot;font-size: 6px;&quot;&gt;São Paulo, Brasil&lt;/font&gt;&lt;/i&gt;&lt;/font&gt;&lt;/div&gt;" style="rounded=0;whiteSpace=wrap;html=1;" parent="1" vertex="1">
          <mxGeometry x="-250" y="630" width="140" height="60" as="geometry" />
        </mxCell>
        <mxCell id="QKL42LECFhcvYfOsLsUi-97" value="" style="endArrow=none;html=1;rounded=0;exitX=1;exitY=0.5;exitDx=0;exitDy=0;entryX=0;entryY=0.5;entryDx=0;entryDy=0;" parent="1" source="QKL42LECFhcvYfOsLsUi-95" target="yprg2_4qLAlfsFqhbdQK-6" edge="1">
          <mxGeometry width="50" height="50" relative="1" as="geometry">
            <mxPoint x="-100" y="590" as="sourcePoint" />
            <mxPoint x="-50" y="540" as="targetPoint" />
          </mxGeometry>
        </mxCell>
        <mxCell id="QKL42LECFhcvYfOsLsUi-98" value="" style="endArrow=none;html=1;rounded=0;exitX=0.5;exitY=0;exitDx=0;exitDy=0;" parent="1" source="QKL42LECFhcvYfOsLsUi-96" edge="1">
          <mxGeometry width="50" height="50" relative="1" as="geometry">
            <mxPoint x="-240" y="650" as="sourcePoint" />
            <mxPoint x="-180" y="560" as="targetPoint" />
          </mxGeometry>
        </mxCell>
        <mxCell id="QKL42LECFhcvYfOsLsUi-101" value="&lt;font style=&quot;&quot;&gt;&lt;font style=&quot;font-size: 10px;&quot;&gt;Gourgi Sigavi&lt;br&gt;&lt;/font&gt;&lt;span style=&quot;font-size: 8px;&quot;&gt;()&lt;/span&gt;&lt;/font&gt;" style="rounded=0;whiteSpace=wrap;html=1;" parent="1" vertex="1">
          <mxGeometry x="5530" y="210" width="120" height="60" as="geometry" />
        </mxCell>
        <mxCell id="QKL42LECFhcvYfOsLsUi-102" value="" style="endArrow=none;html=1;rounded=0;entryX=0;entryY=0.5;entryDx=0;entryDy=0;exitX=1;exitY=0.5;exitDx=0;exitDy=0;" parent="1" source="QKL42LECFhcvYfOsLsUi-8" target="QKL42LECFhcvYfOsLsUi-101" edge="1">
          <mxGeometry width="50" height="50" relative="1" as="geometry">
            <mxPoint x="5510" y="370" as="sourcePoint" />
            <mxPoint x="5560" y="320" as="targetPoint" />
          </mxGeometry>
        </mxCell>
        <mxCell id="QKL42LECFhcvYfOsLsUi-103" value="&lt;font style=&quot;&quot;&gt;&lt;font style=&quot;font-size: 10px;&quot;&gt;Suad Sigavi&lt;br&gt;&lt;/font&gt;&lt;span style=&quot;font-size: 8px;&quot;&gt;()&lt;/span&gt;&lt;/font&gt;" style="rounded=0;whiteSpace=wrap;html=1;" parent="1" vertex="1">
          <mxGeometry x="5450" y="300" width="120" height="60" as="geometry" />
        </mxCell>
        <mxCell id="QKL42LECFhcvYfOsLsUi-104" value="" style="endArrow=none;html=1;rounded=0;exitX=0.5;exitY=0;exitDx=0;exitDy=0;" parent="1" source="QKL42LECFhcvYfOsLsUi-103" edge="1">
          <mxGeometry width="50" height="50" relative="1" as="geometry">
            <mxPoint x="5400" y="330" as="sourcePoint" />
            <mxPoint x="5510" y="240" as="targetPoint" />
          </mxGeometry>
        </mxCell>
        <mxCell id="QKL42LECFhcvYfOsLsUi-109" value="&lt;font style=&quot;font-size: 10px;&quot;&gt;Sabina Horesh&lt;/font&gt;&lt;div&gt;&lt;font style=&quot;font-size: 8px;&quot;&gt;()&lt;br&gt;&lt;i style=&quot;font-size: 6px;&quot;&gt;Baçorá, Iraque&lt;/i&gt;&lt;/font&gt;&lt;/div&gt;" style="rounded=0;whiteSpace=wrap;html=1;" parent="1" vertex="1">
          <mxGeometry x="2750" y="210" width="120" height="60" as="geometry" />
        </mxCell>
        <mxCell id="QKL42LECFhcvYfOsLsUi-110" value="" style="endArrow=none;html=1;rounded=0;exitX=0.5;exitY=0;exitDx=0;exitDy=0;" parent="1" source="QKL42LECFhcvYfOsLsUi-109" edge="1">
          <mxGeometry width="50" height="50" relative="1" as="geometry">
            <mxPoint x="2610" y="360" as="sourcePoint" />
            <mxPoint x="2810" y="180" as="targetPoint" />
          </mxGeometry>
        </mxCell>
        <mxCell id="QKL42LECFhcvYfOsLsUi-111" value="&lt;div&gt;&lt;font style=&quot;font-size: 10px;&quot;&gt;Youssef Zalayet&lt;/font&gt;&lt;/div&gt;&lt;div&gt;&lt;font style=&quot;font-size: 8px;&quot;&gt;(1900 - 1955)&lt;br&gt;&lt;i style=&quot;font-size: 6px;&quot;&gt;Baçorá, Iraque&lt;/i&gt;&lt;/font&gt;&lt;/div&gt;" style="rounded=0;whiteSpace=wrap;html=1;" parent="1" vertex="1">
          <mxGeometry x="2590" y="210" width="120" height="60" as="geometry" />
        </mxCell>
        <mxCell id="QKL42LECFhcvYfOsLsUi-112" value="" style="endArrow=none;html=1;rounded=0;entryX=0;entryY=0.5;entryDx=0;entryDy=0;exitX=1;exitY=0.5;exitDx=0;exitDy=0;" parent="1" source="QKL42LECFhcvYfOsLsUi-111" target="QKL42LECFhcvYfOsLsUi-109" edge="1">
          <mxGeometry width="50" height="50" relative="1" as="geometry">
            <mxPoint x="2770" y="370" as="sourcePoint" />
            <mxPoint x="2820" y="320" as="targetPoint" />
          </mxGeometry>
        </mxCell>
        <mxCell id="QKL42LECFhcvYfOsLsUi-113" value="&lt;font style=&quot;font-size: 10px;&quot;&gt;Albert Zalayet&lt;/font&gt;&lt;div&gt;&lt;font style=&quot;font-size: 8px;&quot;&gt;()&lt;br&gt;&lt;br&gt;&lt;/font&gt;&lt;/div&gt;" style="rounded=0;whiteSpace=wrap;html=1;" parent="1" vertex="1">
          <mxGeometry x="2590" y="310" width="120" height="60" as="geometry" />
        </mxCell>
        <mxCell id="QKL42LECFhcvYfOsLsUi-114" value="&lt;div&gt;&lt;font style=&quot;font-size: 10px;&quot;&gt;Zamira Zalayet&lt;/font&gt;&lt;/div&gt;&lt;div&gt;&lt;font style=&quot;font-size: 8px;&quot;&gt;()&lt;br&gt;&lt;br&gt;&lt;/font&gt;&lt;/div&gt;" style="rounded=0;whiteSpace=wrap;html=1;" parent="1" vertex="1">
          <mxGeometry x="2750" y="310" width="120" height="60" as="geometry" />
        </mxCell>
        <mxCell id="QKL42LECFhcvYfOsLsUi-115" value="&lt;div&gt;&lt;font style=&quot;font-size: 10px;&quot;&gt;Régina Zalayet&lt;/font&gt;&lt;/div&gt;&lt;div&gt;&lt;font style=&quot;font-size: 8px;&quot;&gt;()&lt;br&gt;&lt;br&gt;&lt;/font&gt;&lt;/div&gt;" style="rounded=0;whiteSpace=wrap;html=1;" parent="1" vertex="1">
          <mxGeometry x="2910" y="310" width="120" height="60" as="geometry" />
        </mxCell>
        <mxCell id="QKL42LECFhcvYfOsLsUi-116" value="&lt;div&gt;&lt;font style=&quot;font-size: 10px;&quot;&gt;Shaoul Zalayet&lt;/font&gt;&lt;/div&gt;&lt;div&gt;&lt;font style=&quot;font-size: 8px;&quot;&gt;()&lt;br&gt;&lt;br&gt;&lt;/font&gt;&lt;/div&gt;" style="rounded=0;whiteSpace=wrap;html=1;" parent="1" vertex="1">
          <mxGeometry x="2430" y="310" width="120" height="60" as="geometry" />
        </mxCell>
        <mxCell id="QKL42LECFhcvYfOsLsUi-117" value="" style="endArrow=none;html=1;rounded=0;" parent="1" edge="1">
          <mxGeometry width="50" height="50" relative="1" as="geometry">
            <mxPoint x="2730" y="290" as="sourcePoint" />
            <mxPoint x="2730" y="240" as="targetPoint" />
          </mxGeometry>
        </mxCell>
        <mxCell id="QKL42LECFhcvYfOsLsUi-118" value="" style="endArrow=none;html=1;rounded=0;" parent="1" edge="1">
          <mxGeometry width="50" height="50" relative="1" as="geometry">
            <mxPoint x="2490" y="290" as="sourcePoint" />
            <mxPoint x="2970" y="290" as="targetPoint" />
          </mxGeometry>
        </mxCell>
        <mxCell id="QKL42LECFhcvYfOsLsUi-119" value="" style="endArrow=none;html=1;rounded=0;" parent="1" source="QKL42LECFhcvYfOsLsUi-116" edge="1">
          <mxGeometry width="50" height="50" relative="1" as="geometry">
            <mxPoint x="2340" y="340" as="sourcePoint" />
            <mxPoint x="2490" y="290" as="targetPoint" />
          </mxGeometry>
        </mxCell>
        <mxCell id="QKL42LECFhcvYfOsLsUi-120" value="" style="endArrow=none;html=1;rounded=0;" parent="1" edge="1">
          <mxGeometry width="50" height="50" relative="1" as="geometry">
            <mxPoint x="2649.8" y="310" as="sourcePoint" />
            <mxPoint x="2649.8" y="290" as="targetPoint" />
          </mxGeometry>
        </mxCell>
        <mxCell id="QKL42LECFhcvYfOsLsUi-121" value="" style="endArrow=none;html=1;rounded=0;" parent="1" edge="1">
          <mxGeometry width="50" height="50" relative="1" as="geometry">
            <mxPoint x="2809.8" y="310" as="sourcePoint" />
            <mxPoint x="2809.8" y="290" as="targetPoint" />
          </mxGeometry>
        </mxCell>
        <mxCell id="QKL42LECFhcvYfOsLsUi-122" value="" style="endArrow=none;html=1;rounded=0;" parent="1" edge="1">
          <mxGeometry width="50" height="50" relative="1" as="geometry">
            <mxPoint x="2969.8" y="310" as="sourcePoint" />
            <mxPoint x="2969.8" y="290" as="targetPoint" />
          </mxGeometry>
        </mxCell>
        <mxCell id="cSku5C98RFW8lz9HrviE-1" value="&lt;font style=&quot;&quot;&gt;&lt;span style=&quot;font-size: 10px;&quot;&gt;Dolores Porras Rubio&lt;/span&gt;&lt;/font&gt;&lt;div&gt;&lt;font style=&quot;&quot;&gt;&lt;font style=&quot;&quot;&gt;&lt;span style=&quot;font-size: 8px;&quot;&gt;()&lt;/span&gt;&lt;/font&gt;&lt;/font&gt;&lt;/div&gt;&lt;div&gt;&lt;font style=&quot;&quot;&gt;&lt;font style=&quot;&quot;&gt;&lt;i style=&quot;font-size: 6px;&quot;&gt;Cáceres, Espanha&lt;/i&gt;&lt;/font&gt;&lt;/font&gt;&lt;/div&gt;" style="rounded=0;whiteSpace=wrap;html=1;" parent="1" vertex="1">
          <mxGeometry x="-1710" y="140" width="110" height="60" as="geometry" />
        </mxCell>
        <mxCell id="cSku5C98RFW8lz9HrviE-2" value="&lt;font style=&quot;&quot;&gt;&lt;span style=&quot;font-size: 10px;&quot;&gt;Carlos Martin Sanches&lt;br&gt;&lt;/span&gt;&lt;i style=&quot;font-size: 6px;&quot;&gt;()&lt;br&gt;&lt;/i&gt;&lt;/font&gt;&lt;div&gt;&lt;font style=&quot;&quot;&gt;&lt;span style=&quot;font-size: 6px;&quot;&gt;Cáceres, Espanha&lt;/span&gt;&lt;/font&gt;&lt;/div&gt;" style="rounded=0;whiteSpace=wrap;html=1;" parent="1" vertex="1">
          <mxGeometry x="-1557.5" y="140" width="110" height="60" as="geometry" />
        </mxCell>
        <mxCell id="cSku5C98RFW8lz9HrviE-3" value="" style="endArrow=none;html=1;rounded=0;entryX=0;entryY=0.5;entryDx=0;entryDy=0;exitX=1;exitY=0.5;exitDx=0;exitDy=0;" parent="1" source="cSku5C98RFW8lz9HrviE-1" target="cSku5C98RFW8lz9HrviE-2" edge="1">
          <mxGeometry width="50" height="50" relative="1" as="geometry">
            <mxPoint x="-1717.5" y="210" as="sourcePoint" />
            <mxPoint x="-1667.5" y="160" as="targetPoint" />
          </mxGeometry>
        </mxCell>
        <mxCell id="cSku5C98RFW8lz9HrviE-4" value="" style="endArrow=none;html=1;rounded=0;exitX=0.5;exitY=0;exitDx=0;exitDy=0;" parent="1" edge="1">
          <mxGeometry width="50" height="50" relative="1" as="geometry">
            <mxPoint x="-1580" y="240" as="sourcePoint" />
            <mxPoint x="-1580" y="170" as="targetPoint" />
          </mxGeometry>
        </mxCell>
        <mxCell id="cSku5C98RFW8lz9HrviE-5" value="&lt;font style=&quot;&quot;&gt;&lt;span style=&quot;font-size: 10px;&quot;&gt;Thomaz Martin Porras&lt;/span&gt;&lt;/font&gt;&lt;div&gt;&lt;font style=&quot;&quot;&gt;&lt;span style=&quot;font-size: 8px;&quot;&gt;(1912 - 21/08/1950)&lt;/span&gt;&lt;br&gt;&lt;font style=&quot;font-size: 6px;&quot;&gt;&lt;i&gt;Cáceres, Espanha&lt;/i&gt;&lt;/font&gt;&lt;/font&gt;&lt;/div&gt;" style="rounded=0;whiteSpace=wrap;html=1;" parent="1" vertex="1">
          <mxGeometry x="-2430" y="240" width="110" height="60" as="geometry" />
        </mxCell>
        <mxCell id="cSku5C98RFW8lz9HrviE-6" value="Falta:&lt;div&gt;- Familia Gagliano&lt;/div&gt;&lt;div&gt;- Familia Gabbay&lt;/div&gt;&lt;div&gt;- Filhos dos irmãos do Abdon&lt;/div&gt;&lt;div&gt;&lt;span style=&quot;background-color: transparent; color: light-dark(rgb(0, 0, 0), rgb(255, 255, 255));&quot;&gt;- Filhos dos irmãos da Leonor&lt;/span&gt;&lt;/div&gt;&lt;div&gt;&lt;span style=&quot;background-color: transparent; color: light-dark(rgb(0, 0, 0), rgb(255, 255, 255));&quot;&gt;- Filhos Urbana&lt;/span&gt;&lt;/div&gt;&lt;div&gt;&lt;span style=&quot;background-color: transparent; color: light-dark(rgb(0, 0, 0), rgb(255, 255, 255));&quot;&gt;Filhos tia lydia&lt;/span&gt;&lt;/div&gt;" style="text;html=1;align=center;verticalAlign=middle;resizable=0;points=[];autosize=1;strokeColor=none;fillColor=none;" parent="1" vertex="1">
          <mxGeometry x="-1510" y="1018" width="180" height="110" as="geometry" />
        </mxCell>
        <mxCell id="cSku5C98RFW8lz9HrviE-7" value="&lt;font style=&quot;&quot;&gt;&lt;span style=&quot;font-size: 10px;&quot;&gt;Amador Porras Sánchez&lt;/span&gt;&lt;/font&gt;&lt;div&gt;&lt;font style=&quot;&quot;&gt;&lt;span style=&quot;font-size: 8px;&quot;&gt;(30/04/1917 - )&lt;/span&gt;&lt;br&gt;&lt;font style=&quot;font-size: 6px;&quot;&gt;&lt;i&gt;Fresnedoso de Ibor, Espanha&lt;/i&gt;&lt;/font&gt;&lt;/font&gt;&lt;/div&gt;" style="rounded=0;whiteSpace=wrap;html=1;" parent="1" vertex="1">
          <mxGeometry x="-2590" y="240" width="130" height="60" as="geometry" />
        </mxCell>
        <mxCell id="cSku5C98RFW8lz9HrviE-8" value="&lt;font style=&quot;&quot;&gt;&lt;span style=&quot;font-size: 10px;&quot;&gt;Paulino Martin Porras&lt;/span&gt;&lt;/font&gt;&lt;div&gt;&lt;font style=&quot;&quot;&gt;&lt;span style=&quot;font-size: 8px;&quot;&gt;(22/06/1922 - )&lt;/span&gt;&lt;br&gt;&lt;i style=&quot;font-size: 6px;&quot;&gt;Cáceres, Espanha&lt;/i&gt;&lt;/font&gt;&lt;/div&gt;" style="rounded=0;whiteSpace=wrap;html=1;" parent="1" vertex="1">
          <mxGeometry x="-2730" y="240" width="110" height="60" as="geometry" />
        </mxCell>
        <mxCell id="cSku5C98RFW8lz9HrviE-9" value="&lt;font style=&quot;&quot;&gt;&lt;font style=&quot;font-size: 10px;&quot;&gt;Ladislao Martin&lt;br&gt;&lt;/font&gt;&lt;span style=&quot;font-size: 8px;&quot;&gt;()&lt;/span&gt;&lt;br&gt;&lt;br&gt;&lt;/font&gt;" style="rounded=0;whiteSpace=wrap;html=1;" parent="1" vertex="1">
          <mxGeometry x="-3180" y="240" width="80" height="60" as="geometry" />
        </mxCell>
        <mxCell id="cSku5C98RFW8lz9HrviE-10" value="&lt;font style=&quot;&quot;&gt;&lt;span style=&quot;font-size: 10px;&quot;&gt;Urbana Martin Porras&lt;/span&gt;&lt;/font&gt;&lt;div&gt;&lt;font style=&quot;&quot;&gt;&lt;span style=&quot;font-size: 8px;&quot;&gt;(30/07/1903 - )&lt;/span&gt;&lt;br&gt;&lt;i style=&quot;font-size: 6px;&quot;&gt;Cáceres, Espanha&lt;/i&gt;&lt;/font&gt;&lt;/div&gt;" style="rounded=0;whiteSpace=wrap;html=1;" parent="1" vertex="1">
          <mxGeometry x="-3590" y="240" width="120" height="60" as="geometry" />
        </mxCell>
        <mxCell id="cSku5C98RFW8lz9HrviE-12" value="" style="endArrow=none;html=1;rounded=0;" parent="1" edge="1">
          <mxGeometry width="50" height="50" relative="1" as="geometry">
            <mxPoint x="-3530" y="220" as="sourcePoint" />
            <mxPoint x="-1580" y="220" as="targetPoint" />
          </mxGeometry>
        </mxCell>
        <mxCell id="cSku5C98RFW8lz9HrviE-13" value="" style="endArrow=none;html=1;rounded=0;exitX=0.5;exitY=0;exitDx=0;exitDy=0;" parent="1" edge="1">
          <mxGeometry width="50" height="50" relative="1" as="geometry">
            <mxPoint x="-3530" y="240" as="sourcePoint" />
            <mxPoint x="-3530" y="220" as="targetPoint" />
          </mxGeometry>
        </mxCell>
        <mxCell id="cSku5C98RFW8lz9HrviE-15" value="" style="endArrow=none;html=1;rounded=0;exitX=0.5;exitY=0;exitDx=0;exitDy=0;" parent="1" source="cSku5C98RFW8lz9HrviE-9" edge="1">
          <mxGeometry width="50" height="50" relative="1" as="geometry">
            <mxPoint x="-3275" y="290" as="sourcePoint" />
            <mxPoint x="-3140" y="220" as="targetPoint" />
          </mxGeometry>
        </mxCell>
        <mxCell id="cSku5C98RFW8lz9HrviE-16" value="" style="endArrow=none;html=1;rounded=0;exitX=0.5;exitY=0;exitDx=0;exitDy=0;" parent="1" source="cSku5C98RFW8lz9HrviE-8" edge="1">
          <mxGeometry width="50" height="50" relative="1" as="geometry">
            <mxPoint x="-2675.2" y="240" as="sourcePoint" />
            <mxPoint x="-2675" y="220" as="targetPoint" />
          </mxGeometry>
        </mxCell>
        <mxCell id="cSku5C98RFW8lz9HrviE-18" value="" style="endArrow=none;html=1;rounded=0;exitX=0.5;exitY=0;exitDx=0;exitDy=0;" parent="1" source="cSku5C98RFW8lz9HrviE-7" edge="1">
          <mxGeometry width="50" height="50" relative="1" as="geometry">
            <mxPoint x="-2520" y="240" as="sourcePoint" />
            <mxPoint x="-2525" y="220" as="targetPoint" />
          </mxGeometry>
        </mxCell>
        <mxCell id="cSku5C98RFW8lz9HrviE-20" value="" style="endArrow=none;html=1;rounded=0;exitX=0.5;exitY=0;exitDx=0;exitDy=0;" parent="1" source="cSku5C98RFW8lz9HrviE-5" edge="1">
          <mxGeometry width="50" height="50" relative="1" as="geometry">
            <mxPoint x="-2380" y="240" as="sourcePoint" />
            <mxPoint x="-2375" y="220" as="targetPoint" />
          </mxGeometry>
        </mxCell>
        <mxCell id="cSku5C98RFW8lz9HrviE-32" value="&lt;div&gt;&lt;font style=&quot;&quot;&gt;&lt;span style=&quot;font-size: 10px;&quot;&gt;Jeronima Bello Sanchez&lt;/span&gt;&lt;/font&gt;&lt;/div&gt;&lt;div&gt;&lt;font style=&quot;&quot;&gt;&lt;span style=&quot;font-size: 8px;&quot;&gt;(25/10/1912 -)&lt;/span&gt;&lt;br&gt;&lt;font style=&quot;font-size: 6px;&quot;&gt;&lt;i&gt;Mogarraz, Espanha&lt;/i&gt;&lt;/font&gt;&lt;/font&gt;&lt;/div&gt;" style="rounded=0;whiteSpace=wrap;html=1;" parent="1" vertex="1">
          <mxGeometry x="-2290" y="240" width="130" height="60" as="geometry" />
        </mxCell>
        <mxCell id="cSku5C98RFW8lz9HrviE-34" value="" style="endArrow=none;html=1;rounded=0;exitX=1;exitY=0.5;exitDx=0;exitDy=0;entryX=0;entryY=0.5;entryDx=0;entryDy=0;" parent="1" source="cSku5C98RFW8lz9HrviE-5" target="cSku5C98RFW8lz9HrviE-32" edge="1">
          <mxGeometry width="50" height="50" relative="1" as="geometry">
            <mxPoint x="-2290" y="410" as="sourcePoint" />
            <mxPoint x="-2240" y="360" as="targetPoint" />
          </mxGeometry>
        </mxCell>
        <mxCell id="cSku5C98RFW8lz9HrviE-35" value="&lt;div&gt;&lt;font style=&quot;&quot;&gt;&lt;span style=&quot;font-size: 10px;&quot;&gt;Enis Martins Bello&lt;/span&gt;&lt;/font&gt;&lt;/div&gt;&lt;div&gt;&lt;font style=&quot;&quot;&gt;&lt;span style=&quot;font-size: 8px;&quot;&gt;(05/05/1946 - 11/08/1991)&lt;/span&gt;&lt;br&gt;&lt;font style=&quot;font-size: 6px;&quot;&gt;&lt;i&gt;Olímpia, Brasil&lt;/i&gt;&lt;/font&gt;&lt;/font&gt;&lt;/div&gt;" style="rounded=0;whiteSpace=wrap;html=1;" parent="1" vertex="1">
          <mxGeometry x="-2360" y="330" width="110" height="60" as="geometry" />
        </mxCell>
        <mxCell id="cSku5C98RFW8lz9HrviE-36" value="" style="endArrow=none;html=1;rounded=0;exitX=0.5;exitY=0;exitDx=0;exitDy=0;" parent="1" source="cSku5C98RFW8lz9HrviE-35" edge="1">
          <mxGeometry width="50" height="50" relative="1" as="geometry">
            <mxPoint x="-2480" y="440" as="sourcePoint" />
            <mxPoint x="-2305" y="270" as="targetPoint" />
          </mxGeometry>
        </mxCell>
        <mxCell id="cSku5C98RFW8lz9HrviE-38" value="" style="rounded=0;whiteSpace=wrap;html=1;" parent="1" vertex="1">
          <mxGeometry x="-2210" y="330" width="110" height="60" as="geometry" />
        </mxCell>
        <mxCell id="cSku5C98RFW8lz9HrviE-39" value="" style="endArrow=none;html=1;rounded=0;exitX=1;exitY=0.5;exitDx=0;exitDy=0;entryX=0;entryY=0.5;entryDx=0;entryDy=0;" parent="1" source="cSku5C98RFW8lz9HrviE-35" target="cSku5C98RFW8lz9HrviE-38" edge="1">
          <mxGeometry width="50" height="50" relative="1" as="geometry">
            <mxPoint x="-2300" y="460" as="sourcePoint" />
            <mxPoint x="-2250" y="410" as="targetPoint" />
          </mxGeometry>
        </mxCell>
        <mxCell id="cSku5C98RFW8lz9HrviE-40" value="" style="rounded=0;whiteSpace=wrap;html=1;" parent="1" vertex="1">
          <mxGeometry x="-2360" y="420" width="100" height="60" as="geometry" />
        </mxCell>
        <mxCell id="cSku5C98RFW8lz9HrviE-41" value="" style="rounded=0;whiteSpace=wrap;html=1;" parent="1" vertex="1">
          <mxGeometry x="-2200" y="420" width="100" height="60" as="geometry" />
        </mxCell>
        <mxCell id="cSku5C98RFW8lz9HrviE-42" value="" style="endArrow=none;html=1;rounded=0;" parent="1" edge="1">
          <mxGeometry width="50" height="50" relative="1" as="geometry">
            <mxPoint x="-2230" y="400" as="sourcePoint" />
            <mxPoint x="-2230" y="360" as="targetPoint" />
          </mxGeometry>
        </mxCell>
        <mxCell id="cSku5C98RFW8lz9HrviE-43" value="" style="endArrow=none;html=1;rounded=0;" parent="1" edge="1">
          <mxGeometry width="50" height="50" relative="1" as="geometry">
            <mxPoint x="-2310" y="400" as="sourcePoint" />
            <mxPoint x="-2150" y="400" as="targetPoint" />
          </mxGeometry>
        </mxCell>
        <mxCell id="cSku5C98RFW8lz9HrviE-44" value="" style="endArrow=none;html=1;rounded=0;exitX=0.5;exitY=0;exitDx=0;exitDy=0;" parent="1" source="cSku5C98RFW8lz9HrviE-40" edge="1">
          <mxGeometry width="50" height="50" relative="1" as="geometry">
            <mxPoint x="-2300" y="510" as="sourcePoint" />
            <mxPoint x="-2310" y="400" as="targetPoint" />
          </mxGeometry>
        </mxCell>
        <mxCell id="cSku5C98RFW8lz9HrviE-45" value="" style="endArrow=none;html=1;rounded=0;exitX=0.5;exitY=0;exitDx=0;exitDy=0;" parent="1" source="cSku5C98RFW8lz9HrviE-41" edge="1">
          <mxGeometry width="50" height="50" relative="1" as="geometry">
            <mxPoint x="-2260" y="470" as="sourcePoint" />
            <mxPoint x="-2150" y="400" as="targetPoint" />
          </mxGeometry>
        </mxCell>
        <mxCell id="cSku5C98RFW8lz9HrviE-46" value="&lt;font style=&quot;&quot;&gt;&lt;span style=&quot;font-size: 10px;&quot;&gt;Maria do Carmo Dias&lt;/span&gt;&lt;/font&gt;&lt;div&gt;&lt;font style=&quot;&quot;&gt;&lt;span style=&quot;font-size: 8px;&quot;&gt;()&lt;/span&gt;&lt;br&gt;&lt;br&gt;&lt;/font&gt;&lt;/div&gt;" style="rounded=0;whiteSpace=wrap;html=1;" parent="1" vertex="1">
          <mxGeometry x="-3070" y="240" width="110" height="60" as="geometry" />
        </mxCell>
        <mxCell id="cSku5C98RFW8lz9HrviE-47" value="" style="endArrow=none;html=1;rounded=0;exitX=1;exitY=0.5;exitDx=0;exitDy=0;" parent="1" source="cSku5C98RFW8lz9HrviE-9" edge="1">
          <mxGeometry width="50" height="50" relative="1" as="geometry">
            <mxPoint x="-3080" y="320" as="sourcePoint" />
            <mxPoint x="-3070" y="270" as="targetPoint" />
          </mxGeometry>
        </mxCell>
        <mxCell id="cSku5C98RFW8lz9HrviE-48" value="&lt;font style=&quot;&quot;&gt;&lt;span style=&quot;font-size: 10px;&quot;&gt;Lydia Martin Dias&lt;/span&gt;&lt;/font&gt;&lt;div&gt;&lt;font style=&quot;&quot;&gt;&lt;span style=&quot;font-size: 8px;&quot;&gt;()&lt;/span&gt;&lt;br&gt;&lt;br&gt;&lt;/font&gt;&lt;/div&gt;" style="rounded=0;whiteSpace=wrap;html=1;" parent="1" vertex="1">
          <mxGeometry x="-3140" y="330" width="110" height="60" as="geometry" />
        </mxCell>
        <mxCell id="cSku5C98RFW8lz9HrviE-49" value="" style="endArrow=none;html=1;rounded=0;exitX=0.5;exitY=0;exitDx=0;exitDy=0;" parent="1" source="cSku5C98RFW8lz9HrviE-48" edge="1">
          <mxGeometry width="50" height="50" relative="1" as="geometry">
            <mxPoint x="-3085.21" y="320" as="sourcePoint" />
            <mxPoint x="-3085.21" y="270" as="targetPoint" />
          </mxGeometry>
        </mxCell>
        <mxCell id="cSku5C98RFW8lz9HrviE-50" value="&lt;div&gt;&lt;font style=&quot;&quot;&gt;&lt;span style=&quot;font-size: 10px;&quot;&gt;Alberto Carlos Gomes Lomba&lt;/span&gt;&lt;/font&gt;&lt;/div&gt;&lt;div&gt;&lt;font style=&quot;&quot;&gt;&lt;span style=&quot;font-size: 8px;&quot;&gt;()&lt;/span&gt;&lt;br&gt;&lt;br&gt;&lt;/font&gt;&lt;/div&gt;" style="rounded=0;whiteSpace=wrap;html=1;" parent="1" vertex="1">
          <mxGeometry x="-2990" y="330" width="150" height="60" as="geometry" />
        </mxCell>
        <mxCell id="cSku5C98RFW8lz9HrviE-51" value="" style="endArrow=none;html=1;rounded=0;exitX=1;exitY=0.5;exitDx=0;exitDy=0;entryX=0;entryY=0.5;entryDx=0;entryDy=0;" parent="1" source="cSku5C98RFW8lz9HrviE-48" target="cSku5C98RFW8lz9HrviE-50" edge="1">
          <mxGeometry width="50" height="50" relative="1" as="geometry">
            <mxPoint x="-3080" y="320" as="sourcePoint" />
            <mxPoint x="-3030" y="270" as="targetPoint" />
          </mxGeometry>
        </mxCell>
        <mxCell id="cSku5C98RFW8lz9HrviE-53" value="&lt;div&gt;&lt;font style=&quot;&quot;&gt;&lt;br&gt;&lt;/font&gt;&lt;/div&gt;" style="rounded=0;whiteSpace=wrap;html=1;" parent="1" vertex="1">
          <mxGeometry x="-3140" y="430" width="110" height="60" as="geometry" />
        </mxCell>
        <mxCell id="cSku5C98RFW8lz9HrviE-54" value="&lt;div&gt;&lt;font style=&quot;&quot;&gt;&lt;br&gt;&lt;/font&gt;&lt;/div&gt;" style="rounded=0;whiteSpace=wrap;html=1;" parent="1" vertex="1">
          <mxGeometry x="-3000" y="430" width="110" height="60" as="geometry" />
        </mxCell>
        <mxCell id="cSku5C98RFW8lz9HrviE-55" value="&lt;div&gt;&lt;font style=&quot;&quot;&gt;&lt;br&gt;&lt;/font&gt;&lt;/div&gt;" style="rounded=0;whiteSpace=wrap;html=1;" parent="1" vertex="1">
          <mxGeometry x="-3350" y="430" width="120" height="60" as="geometry" />
        </mxCell>
        <mxCell id="cSku5C98RFW8lz9HrviE-56" value="&lt;div&gt;&lt;font style=&quot;&quot;&gt;&lt;br&gt;&lt;/font&gt;&lt;/div&gt;" style="rounded=0;whiteSpace=wrap;html=1;" parent="1" vertex="1">
          <mxGeometry x="-3500" y="430" width="110" height="60" as="geometry" />
        </mxCell>
        <mxCell id="cSku5C98RFW8lz9HrviE-57" value="" style="endArrow=none;html=1;rounded=0;exitX=1;exitY=0.5;exitDx=0;exitDy=0;entryX=0;entryY=0.5;entryDx=0;entryDy=0;" parent="1" source="cSku5C98RFW8lz9HrviE-56" target="cSku5C98RFW8lz9HrviE-55" edge="1">
          <mxGeometry width="50" height="50" relative="1" as="geometry">
            <mxPoint x="-3380" y="460" as="sourcePoint" />
            <mxPoint x="-3170" y="480" as="targetPoint" />
          </mxGeometry>
        </mxCell>
        <mxCell id="cSku5C98RFW8lz9HrviE-58" value="" style="endArrow=none;html=1;rounded=0;exitX=1;exitY=0.5;exitDx=0;exitDy=0;entryX=0;entryY=0.5;entryDx=0;entryDy=0;" parent="1" source="cSku5C98RFW8lz9HrviE-53" target="cSku5C98RFW8lz9HrviE-54" edge="1">
          <mxGeometry width="50" height="50" relative="1" as="geometry">
            <mxPoint x="-3120" y="540" as="sourcePoint" />
            <mxPoint x="-3070" y="490" as="targetPoint" />
          </mxGeometry>
        </mxCell>
        <mxCell id="cSku5C98RFW8lz9HrviE-59" value="&lt;div&gt;&lt;font style=&quot;&quot;&gt;&lt;br&gt;&lt;/font&gt;&lt;/div&gt;" style="rounded=0;whiteSpace=wrap;html=1;" parent="1" vertex="1">
          <mxGeometry x="-2830" y="430" width="120" height="60" as="geometry" />
        </mxCell>
        <mxCell id="cSku5C98RFW8lz9HrviE-60" value="&lt;div&gt;&lt;font style=&quot;&quot;&gt;&lt;br&gt;&lt;/font&gt;&lt;/div&gt;" style="rounded=0;whiteSpace=wrap;html=1;" parent="1" vertex="1">
          <mxGeometry x="-2680" y="430" width="110" height="60" as="geometry" />
        </mxCell>
        <mxCell id="cSku5C98RFW8lz9HrviE-61" value="" style="endArrow=none;html=1;rounded=0;entryX=0;entryY=0.5;entryDx=0;entryDy=0;exitX=1;exitY=0.5;exitDx=0;exitDy=0;" parent="1" source="cSku5C98RFW8lz9HrviE-59" target="cSku5C98RFW8lz9HrviE-60" edge="1">
          <mxGeometry width="50" height="50" relative="1" as="geometry">
            <mxPoint x="-2890" y="540" as="sourcePoint" />
            <mxPoint x="-2840" y="490" as="targetPoint" />
          </mxGeometry>
        </mxCell>
        <mxCell id="cSku5C98RFW8lz9HrviE-62" value="" style="endArrow=none;html=1;rounded=0;" parent="1" edge="1">
          <mxGeometry width="50" height="50" relative="1" as="geometry">
            <mxPoint x="-3010" y="410" as="sourcePoint" />
            <mxPoint x="-3010" y="360" as="targetPoint" />
          </mxGeometry>
        </mxCell>
        <mxCell id="cSku5C98RFW8lz9HrviE-63" value="" style="endArrow=none;html=1;rounded=0;" parent="1" edge="1">
          <mxGeometry width="50" height="50" relative="1" as="geometry">
            <mxPoint x="-3290" y="410" as="sourcePoint" />
            <mxPoint x="-2770" y="410" as="targetPoint" />
          </mxGeometry>
        </mxCell>
        <mxCell id="cSku5C98RFW8lz9HrviE-64" value="" style="endArrow=none;html=1;rounded=0;exitX=0.5;exitY=0;exitDx=0;exitDy=0;" parent="1" source="cSku5C98RFW8lz9HrviE-55" edge="1">
          <mxGeometry width="50" height="50" relative="1" as="geometry">
            <mxPoint x="-3400" y="410" as="sourcePoint" />
            <mxPoint x="-3290" y="410" as="targetPoint" />
          </mxGeometry>
        </mxCell>
        <mxCell id="cSku5C98RFW8lz9HrviE-65" value="" style="endArrow=none;html=1;rounded=0;exitX=0.5;exitY=0;exitDx=0;exitDy=0;" parent="1" source="cSku5C98RFW8lz9HrviE-53" edge="1">
          <mxGeometry width="50" height="50" relative="1" as="geometry">
            <mxPoint x="-2900" y="490" as="sourcePoint" />
            <mxPoint x="-3085" y="410" as="targetPoint" />
          </mxGeometry>
        </mxCell>
        <mxCell id="cSku5C98RFW8lz9HrviE-66" value="" style="endArrow=none;html=1;rounded=0;exitX=0.5;exitY=0;exitDx=0;exitDy=0;" parent="1" source="cSku5C98RFW8lz9HrviE-59" edge="1">
          <mxGeometry width="50" height="50" relative="1" as="geometry">
            <mxPoint x="-2770" y="560" as="sourcePoint" />
            <mxPoint x="-2770" y="410" as="targetPoint" />
          </mxGeometry>
        </mxCell>
        <mxCell id="cSku5C98RFW8lz9HrviE-68" value="&lt;div&gt;&lt;font style=&quot;&quot;&gt;&lt;br&gt;&lt;/font&gt;&lt;/div&gt;" style="rounded=0;whiteSpace=wrap;html=1;" parent="1" vertex="1">
          <mxGeometry x="-3500" y="525" width="110" height="60" as="geometry" />
        </mxCell>
        <mxCell id="cSku5C98RFW8lz9HrviE-69" value="&lt;div&gt;&lt;font style=&quot;&quot;&gt;&lt;br&gt;&lt;/font&gt;&lt;/div&gt;" style="rounded=0;whiteSpace=wrap;html=1;" parent="1" vertex="1">
          <mxGeometry x="-3345" y="525" width="110" height="60" as="geometry" />
        </mxCell>
        <mxCell id="cSku5C98RFW8lz9HrviE-70" value="" style="endArrow=none;html=1;rounded=0;" parent="1" edge="1">
          <mxGeometry width="50" height="50" relative="1" as="geometry">
            <mxPoint x="-3370" y="510" as="sourcePoint" />
            <mxPoint x="-3370" y="460" as="targetPoint" />
          </mxGeometry>
        </mxCell>
        <mxCell id="cSku5C98RFW8lz9HrviE-71" value="" style="endArrow=none;html=1;rounded=0;" parent="1" edge="1">
          <mxGeometry width="50" height="50" relative="1" as="geometry">
            <mxPoint x="-3370" y="510" as="sourcePoint" />
            <mxPoint x="-3290" y="510" as="targetPoint" />
          </mxGeometry>
        </mxCell>
        <mxCell id="cSku5C98RFW8lz9HrviE-72" value="" style="endArrow=none;html=1;rounded=0;entryX=0.5;entryY=1;entryDx=0;entryDy=0;exitX=0.5;exitY=0;exitDx=0;exitDy=0;" parent="1" source="cSku5C98RFW8lz9HrviE-68" target="cSku5C98RFW8lz9HrviE-56" edge="1">
          <mxGeometry width="50" height="50" relative="1" as="geometry">
            <mxPoint x="-3310" y="530" as="sourcePoint" />
            <mxPoint x="-3260" y="480" as="targetPoint" />
          </mxGeometry>
        </mxCell>
        <mxCell id="cSku5C98RFW8lz9HrviE-73" value="" style="endArrow=none;html=1;rounded=0;exitX=0.5;exitY=0;exitDx=0;exitDy=0;" parent="1" source="cSku5C98RFW8lz9HrviE-69" edge="1">
          <mxGeometry width="50" height="50" relative="1" as="geometry">
            <mxPoint x="-3300" y="550" as="sourcePoint" />
            <mxPoint x="-3290" y="510" as="targetPoint" />
          </mxGeometry>
        </mxCell>
        <mxCell id="cSku5C98RFW8lz9HrviE-74" value="&lt;div&gt;&lt;font style=&quot;&quot;&gt;&lt;br&gt;&lt;/font&gt;&lt;/div&gt;" style="rounded=0;whiteSpace=wrap;html=1;" parent="1" vertex="1">
          <mxGeometry x="-3070" y="525" width="110" height="60" as="geometry" />
        </mxCell>
        <mxCell id="cSku5C98RFW8lz9HrviE-75" value="" style="endArrow=none;html=1;rounded=0;exitX=0.5;exitY=0;exitDx=0;exitDy=0;" parent="1" source="cSku5C98RFW8lz9HrviE-74" edge="1">
          <mxGeometry width="50" height="50" relative="1" as="geometry">
            <mxPoint x="-3180" y="580" as="sourcePoint" />
            <mxPoint x="-3015" y="460" as="targetPoint" />
          </mxGeometry>
        </mxCell>
        <mxCell id="cSku5C98RFW8lz9HrviE-76" value="&lt;div&gt;&lt;font style=&quot;&quot;&gt;&lt;br&gt;&lt;/font&gt;&lt;/div&gt;" style="rounded=0;whiteSpace=wrap;html=1;" parent="1" vertex="1">
          <mxGeometry x="-2750" y="525" width="110" height="60" as="geometry" />
        </mxCell>
        <mxCell id="cSku5C98RFW8lz9HrviE-77" value="" style="endArrow=none;html=1;rounded=0;exitX=0.5;exitY=0;exitDx=0;exitDy=0;" parent="1" source="cSku5C98RFW8lz9HrviE-76" edge="1">
          <mxGeometry width="50" height="50" relative="1" as="geometry">
            <mxPoint x="-2860" y="580" as="sourcePoint" />
            <mxPoint x="-2695" y="460" as="targetPoint" />
          </mxGeometry>
        </mxCell>
        <mxCell id="wGuA5ABlg4GzcRjGwiXI-1" value="&lt;div&gt;&lt;font style=&quot;&quot;&gt;&lt;span style=&quot;font-size: 10px;&quot;&gt;Sebastiana Candida da Silva&lt;/span&gt;&lt;/font&gt;&lt;/div&gt;&lt;div&gt;&lt;font style=&quot;&quot;&gt;&lt;span style=&quot;font-size: 8px;&quot;&gt;(12/10/1890 - ?)&lt;/span&gt;&lt;br&gt;&lt;font style=&quot;font-size: 6px;&quot;&gt;&lt;i&gt;Guatapará, Brasil&lt;/i&gt;&lt;/font&gt;&lt;/font&gt;&lt;/div&gt;" style="rounded=0;whiteSpace=wrap;html=1;" parent="1" vertex="1">
          <mxGeometry x="-1080" y="130" width="140" height="60" as="geometry" />
        </mxCell>
        <mxCell id="wGuA5ABlg4GzcRjGwiXI-2" value="&lt;font style=&quot;&quot;&gt;&lt;span style=&quot;font-size: 10px;&quot;&gt;João Sabino Pereira Filho&lt;/span&gt;&lt;/font&gt;&lt;div&gt;&lt;font style=&quot;&quot;&gt;&lt;span style=&quot;font-size: 8px;&quot;&gt;(? - ?)&lt;/span&gt;&lt;br&gt;&lt;br&gt;&lt;/font&gt;&lt;/div&gt;" style="rounded=0;whiteSpace=wrap;html=1;" parent="1" vertex="1">
          <mxGeometry x="-900" y="130" width="140" height="60" as="geometry" />
        </mxCell>
        <mxCell id="wGuA5ABlg4GzcRjGwiXI-3" value="" style="endArrow=none;html=1;rounded=0;entryX=0;entryY=0.5;entryDx=0;entryDy=0;exitX=1;exitY=0.5;exitDx=0;exitDy=0;" parent="1" source="wGuA5ABlg4GzcRjGwiXI-1" target="wGuA5ABlg4GzcRjGwiXI-2" edge="1">
          <mxGeometry width="50" height="50" relative="1" as="geometry">
            <mxPoint x="-1140" y="130" as="sourcePoint" />
            <mxPoint x="-1090" y="80" as="targetPoint" />
          </mxGeometry>
        </mxCell>
        <mxCell id="wGuA5ABlg4GzcRjGwiXI-4" value="&lt;font style=&quot;&quot;&gt;&lt;font style=&quot;&quot;&gt;&lt;font style=&quot;&quot;&gt;&lt;span style=&quot;font-size: 10px;&quot;&gt;Maria Sabino Pereira&lt;/span&gt;&lt;/font&gt;&lt;/font&gt;&lt;/font&gt;&lt;div&gt;&lt;font style=&quot;&quot;&gt;&lt;font style=&quot;&quot;&gt;&lt;font style=&quot;&quot;&gt;&lt;span style=&quot;font-size: 8px;&quot;&gt;(30/10/1915 - ?)&lt;/span&gt;&lt;br&gt;&lt;font style=&quot;font-style: italic; font-size: 6px;&quot;&gt;Cajuru, Brasil&lt;/font&gt;&lt;/font&gt;&lt;/font&gt;&lt;/font&gt;&lt;/div&gt;" style="rounded=0;whiteSpace=wrap;html=1;" parent="1" vertex="1">
          <mxGeometry x="-987" y="240" width="107" height="60" as="geometry" />
        </mxCell>
        <mxCell id="wGuA5ABlg4GzcRjGwiXI-5" value="&lt;font style=&quot;&quot;&gt;&lt;font style=&quot;&quot;&gt;&lt;font style=&quot;&quot;&gt;&lt;span style=&quot;font-size: 10px;&quot;&gt;Braz Sabino Pereira&lt;/span&gt;&lt;/font&gt;&lt;/font&gt;&lt;/font&gt;&lt;div&gt;&lt;font style=&quot;&quot;&gt;&lt;font style=&quot;&quot;&gt;&lt;font style=&quot;&quot;&gt;&lt;span style=&quot;font-size: 8px;&quot;&gt;(13/12/1920 - )&lt;/span&gt;&lt;br&gt;&lt;font style=&quot;font-style: italic; font-size: 6px;&quot;&gt;Cajuru, Brasil&lt;/font&gt;&lt;/font&gt;&lt;/font&gt;&lt;/font&gt;&lt;/div&gt;" style="rounded=0;whiteSpace=wrap;html=1;" parent="1" vertex="1">
          <mxGeometry x="-830" y="240" width="100" height="60" as="geometry" />
        </mxCell>
        <mxCell id="wGuA5ABlg4GzcRjGwiXI-6" value="&lt;font style=&quot;&quot;&gt;&lt;font style=&quot;&quot;&gt;&lt;font style=&quot;&quot;&gt;&lt;span style=&quot;font-size: 10px;&quot;&gt;Athailza Diogo de Faria&lt;/span&gt;&lt;/font&gt;&lt;/font&gt;&lt;/font&gt;&lt;div&gt;&lt;font style=&quot;&quot;&gt;&lt;font style=&quot;&quot;&gt;&lt;font style=&quot;&quot;&gt;&lt;span style=&quot;font-size: 8px;&quot;&gt;(06/05/1936 - ?)&lt;/span&gt;&lt;br&gt;&lt;font style=&quot;font-style: italic; font-size: 6px;&quot;&gt;Monte Aprazível, Brasil&lt;/font&gt;&lt;/font&gt;&lt;/font&gt;&lt;/font&gt;&lt;/div&gt;" style="rounded=0;whiteSpace=wrap;html=1;" parent="1" vertex="1">
          <mxGeometry x="-700" y="240" width="160" height="60" as="geometry" />
        </mxCell>
        <mxCell id="wGuA5ABlg4GzcRjGwiXI-7" value="" style="endArrow=none;html=1;rounded=0;" parent="1" edge="1">
          <mxGeometry width="50" height="50" relative="1" as="geometry">
            <mxPoint x="-920" y="220" as="sourcePoint" />
            <mxPoint x="-920" y="160" as="targetPoint" />
          </mxGeometry>
        </mxCell>
        <mxCell id="wGuA5ABlg4GzcRjGwiXI-8" value="" style="endArrow=none;html=1;rounded=0;" parent="1" edge="1">
          <mxGeometry width="50" height="50" relative="1" as="geometry">
            <mxPoint x="-1110" y="220" as="sourcePoint" />
            <mxPoint x="-440" y="220" as="targetPoint" />
          </mxGeometry>
        </mxCell>
        <mxCell id="wGuA5ABlg4GzcRjGwiXI-9" value="" style="endArrow=none;html=1;rounded=0;exitX=0.5;exitY=0;exitDx=0;exitDy=0;" parent="1" source="D5vzUN_o91gO2FAWrli7-9" edge="1">
          <mxGeometry width="50" height="50" relative="1" as="geometry">
            <mxPoint x="-740" y="360" as="sourcePoint" />
            <mxPoint x="-1110" y="220" as="targetPoint" />
          </mxGeometry>
        </mxCell>
        <mxCell id="wGuA5ABlg4GzcRjGwiXI-10" value="" style="endArrow=none;html=1;rounded=0;exitX=0.5;exitY=0;exitDx=0;exitDy=0;" parent="1" source="wGuA5ABlg4GzcRjGwiXI-4" edge="1">
          <mxGeometry width="50" height="50" relative="1" as="geometry">
            <mxPoint x="-933.66" y="240" as="sourcePoint" />
            <mxPoint x="-933.66" y="220" as="targetPoint" />
          </mxGeometry>
        </mxCell>
        <mxCell id="wGuA5ABlg4GzcRjGwiXI-11" value="" style="endArrow=none;html=1;rounded=0;exitX=0.5;exitY=0;exitDx=0;exitDy=0;" parent="1" source="wGuA5ABlg4GzcRjGwiXI-5" edge="1">
          <mxGeometry width="50" height="50" relative="1" as="geometry">
            <mxPoint x="-769.67" y="240" as="sourcePoint" />
            <mxPoint x="-780" y="220" as="targetPoint" />
          </mxGeometry>
        </mxCell>
        <mxCell id="wGuA5ABlg4GzcRjGwiXI-12" value="" style="endArrow=none;html=1;rounded=0;exitX=1;exitY=0.5;exitDx=0;exitDy=0;entryX=0;entryY=0.5;entryDx=0;entryDy=0;" parent="1" source="wGuA5ABlg4GzcRjGwiXI-5" target="wGuA5ABlg4GzcRjGwiXI-6" edge="1">
          <mxGeometry width="50" height="50" relative="1" as="geometry">
            <mxPoint x="-680" y="340" as="sourcePoint" />
            <mxPoint x="-630" y="290" as="targetPoint" />
          </mxGeometry>
        </mxCell>
        <mxCell id="wGuA5ABlg4GzcRjGwiXI-13" value="&lt;font style=&quot;&quot;&gt;&lt;font style=&quot;&quot;&gt;&lt;font style=&quot;&quot;&gt;&lt;span style=&quot;font-size: 10px;&quot;&gt;Alaôr Sabino Pereira&lt;/span&gt;&lt;/font&gt;&lt;/font&gt;&lt;/font&gt;&lt;div&gt;&lt;font style=&quot;&quot;&gt;&lt;font style=&quot;&quot;&gt;&lt;font style=&quot;&quot;&gt;&lt;span style=&quot;font-size: 8px;&quot;&gt;(26/02/1917 - )&lt;/span&gt;&lt;br&gt;&lt;font style=&quot;font-style: italic; font-size: 6px;&quot;&gt;Cajuru, Brasil&lt;/font&gt;&lt;/font&gt;&lt;/font&gt;&lt;/font&gt;&lt;/div&gt;" style="rounded=0;whiteSpace=wrap;html=1;" parent="1" vertex="1">
          <mxGeometry x="-500" y="240" width="120" height="60" as="geometry" />
        </mxCell>
        <mxCell id="wGuA5ABlg4GzcRjGwiXI-14" value="" style="endArrow=none;html=1;rounded=0;exitX=0.5;exitY=0;exitDx=0;exitDy=0;" parent="1" source="wGuA5ABlg4GzcRjGwiXI-13" edge="1">
          <mxGeometry width="50" height="50" relative="1" as="geometry">
            <mxPoint x="-570" y="420" as="sourcePoint" />
            <mxPoint x="-440" y="220" as="targetPoint" />
          </mxGeometry>
        </mxCell>
        <mxCell id="ayc8vx-FCEweC683XxS_-6" value="&lt;font style=&quot;&quot;&gt;&lt;font style=&quot;font-size: 10px;&quot;&gt;Carlos Roberto Gagliano&lt;br&gt;&lt;/font&gt;&lt;span style=&quot;font-size: 8px;&quot;&gt;(28/02/1951 - )&lt;/span&gt;&lt;/font&gt;&lt;div&gt;&lt;font style=&quot;font-size: 8px;&quot;&gt;&lt;i style=&quot;font-size: 12px;&quot;&gt;&lt;font style=&quot;font-size: 6px;&quot;&gt;São Paulo, Brasil&lt;/font&gt;&lt;/i&gt;&lt;/font&gt;&lt;/div&gt;" style="rounded=0;whiteSpace=wrap;html=1;" vertex="1" parent="1">
          <mxGeometry x="1040" y="310" width="120" height="60" as="geometry" />
        </mxCell>
        <mxCell id="ayc8vx-FCEweC683XxS_-7" value="&lt;font style=&quot;&quot;&gt;&lt;font style=&quot;font-size: 10px;&quot;&gt;Diana Linda Horesh&lt;br&gt;&lt;/font&gt;&lt;span style=&quot;font-size: 8px;&quot;&gt;(07/05/19xx - )&lt;/span&gt;&lt;/font&gt;&lt;div&gt;&lt;font style=&quot;font-size: 8px;&quot;&gt;&lt;i style=&quot;font-size: 12px;&quot;&gt;&lt;font style=&quot;font-size: 6px;&quot;&gt;São Paulo, Brasil&lt;/font&gt;&lt;/i&gt;&lt;/font&gt;&lt;/div&gt;" style="rounded=0;whiteSpace=wrap;html=1;" vertex="1" parent="1">
          <mxGeometry x="1240" y="310" width="120" height="60" as="geometry" />
        </mxCell>
        <mxCell id="ayc8vx-FCEweC683XxS_-8" value="" style="endArrow=none;html=1;rounded=0;entryX=0;entryY=0.5;entryDx=0;entryDy=0;exitX=1;exitY=0.5;exitDx=0;exitDy=0;" edge="1" parent="1" source="ayc8vx-FCEweC683XxS_-6" target="ayc8vx-FCEweC683XxS_-7">
          <mxGeometry width="50" height="50" relative="1" as="geometry">
            <mxPoint x="1190" y="450" as="sourcePoint" />
            <mxPoint x="1240" y="400" as="targetPoint" />
          </mxGeometry>
        </mxCell>
        <mxCell id="ayc8vx-FCEweC683XxS_-9" value="" style="endArrow=none;html=1;rounded=0;" edge="1" parent="1">
          <mxGeometry width="50" height="50" relative="1" as="geometry">
            <mxPoint x="1200" y="510" as="sourcePoint" />
            <mxPoint x="1200" y="340" as="targetPoint" />
          </mxGeometry>
        </mxCell>
        <mxCell id="ayc8vx-FCEweC683XxS_-10" value="" style="endArrow=none;html=1;rounded=0;" edge="1" parent="1">
          <mxGeometry width="50" height="50" relative="1" as="geometry">
            <mxPoint x="810" y="510" as="sourcePoint" />
            <mxPoint x="1520" y="510" as="targetPoint" />
          </mxGeometry>
        </mxCell>
        <mxCell id="ayc8vx-FCEweC683XxS_-11" value="&lt;font style=&quot;&quot;&gt;&lt;font style=&quot;font-size: 10px;&quot;&gt;Latif (Albert) Horesh&lt;br&gt;&lt;/font&gt;&lt;span style=&quot;font-size: 8px;&quot;&gt;(27/07/1916 - 04/10/1987)&lt;/span&gt;&lt;br&gt;&lt;font style=&quot;font-size: 6px;&quot;&gt;&lt;i&gt;Baçorá, Iraque&lt;/i&gt;&lt;/font&gt;&lt;/font&gt;" style="rounded=0;whiteSpace=wrap;html=1;" vertex="1" parent="1">
          <mxGeometry x="2260" y="210" width="120" height="60" as="geometry" />
        </mxCell>
        <mxCell id="ayc8vx-FCEweC683XxS_-13" value="" style="endArrow=none;html=1;rounded=0;entryX=0;entryY=0.5;entryDx=0;entryDy=0;exitX=1;exitY=0.5;exitDx=0;exitDy=0;" edge="1" parent="1" source="eL84m_089L8rZWCyLEAg-9" target="ayc8vx-FCEweC683XxS_-11">
          <mxGeometry width="50" height="50" relative="1" as="geometry">
            <mxPoint x="1330" y="330" as="sourcePoint" />
            <mxPoint x="1380" y="280" as="targetPoint" />
          </mxGeometry>
        </mxCell>
        <mxCell id="ayc8vx-FCEweC683XxS_-14" value="" style="endArrow=none;html=1;rounded=0;exitX=0.5;exitY=0;exitDx=0;exitDy=0;" edge="1" parent="1" source="ayc8vx-FCEweC683XxS_-11">
          <mxGeometry width="50" height="50" relative="1" as="geometry">
            <mxPoint x="2300" y="160" as="sourcePoint" />
            <mxPoint x="2320" y="180" as="targetPoint" />
          </mxGeometry>
        </mxCell>
        <mxCell id="ayc8vx-FCEweC683XxS_-15" value="" style="endArrow=none;html=1;rounded=0;" edge="1" parent="1">
          <mxGeometry width="50" height="50" relative="1" as="geometry">
            <mxPoint x="1850" y="290" as="sourcePoint" />
            <mxPoint x="1850" y="240" as="targetPoint" />
          </mxGeometry>
        </mxCell>
        <mxCell id="ayc8vx-FCEweC683XxS_-16" value="" style="endArrow=none;html=1;rounded=0;" edge="1" parent="1">
          <mxGeometry width="50" height="50" relative="1" as="geometry">
            <mxPoint x="1300" y="290" as="sourcePoint" />
            <mxPoint x="1850" y="290" as="targetPoint" />
          </mxGeometry>
        </mxCell>
        <mxCell id="ayc8vx-FCEweC683XxS_-17" value="" style="endArrow=none;html=1;rounded=0;exitX=0.5;exitY=0;exitDx=0;exitDy=0;" edge="1" parent="1" source="ayc8vx-FCEweC683XxS_-7">
          <mxGeometry width="50" height="50" relative="1" as="geometry">
            <mxPoint x="1420" y="390" as="sourcePoint" />
            <mxPoint x="1300" y="290" as="targetPoint" />
          </mxGeometry>
        </mxCell>
        <mxCell id="ayc8vx-FCEweC683XxS_-18" value="" style="endArrow=none;html=1;rounded=0;exitX=0.5;exitY=0;exitDx=0;exitDy=0;" edge="1" parent="1" source="QKL42LECFhcvYfOsLsUi-77">
          <mxGeometry width="50" height="50" relative="1" as="geometry">
            <mxPoint x="1940" y="310" as="sourcePoint" />
            <mxPoint x="1850" y="290" as="targetPoint" />
          </mxGeometry>
        </mxCell>
      </root>
    </mxGraphModel>
  </diagram>
</mxfile>
